<?xml version="1.0" encoding="UTF-8"?>
<svg xmlns="http://www.w3.org/2000/svg" viewBox="0 0 547.4 574.07">
  <defs>
    <style>
      .cls-1 {
        fill: #349946;
      }
    </style>
  </defs>
  <g id="Layer_0">
    <g>
      <path d="M278.79,44.6c-1.06,11.73.01,22.89.36,34.06.26,8.54-.34,17.14.53,25.61,1.42,13.96-.88,27.85-.04,41.75.61,10.11.16,20.2,0,30.3-.16,10.55-.43,21.11-.51,31.66-.08,10.29-.77,20.56-.21,30.87.3,5.54-.63,11.14-.53,16.74.13,7.37-.16,14.74.29,22.12.43,7.04-.36,14.12.37,21.2,1.63,15.81.56,31.68.56,47.51,0,18.26-.83,36.53-.8,54.79.03,20.26-.48,40.52.61,60.79.57,10.61.6,21.29.45,31.96-.21,14.43.1,28.87.24,43.31.02,2.49-.82,4.12-2.89,5.79-5.45,4.4-11.19,8.57-15.24,14.49-.76,1.11-1.94,1.61-3.33,1.14-4.19-1.41-8.5-1.62-12.83-1.09-8.52,1.04-17.09-.29-25.61.65-1.66.18-2.97-.84-3.83-2.35-3.44-6.05-6.82-12.11-11.42-17.44-2.02-2.34-4.45-3.89-7.04-5.2-11.69-5.93-22.98-12.56-34.38-19.01-4.16-2.35-8.49-4.27-12.84-6.17-1.97-.86-2.75-1.93-2.28-4.36,1.19-6.11,1.92-12.31,2.87-18.47.27-1.74-.23-2.6-2.07-3.19-6.74-2.15-13.33-4.72-19.82-7.55-2.55-1.11-5.14-2.18-8.09-2.19-2,0-3.47-1.5-4.28-3.29-4.07-9.04-8.53-17.9-13.84-26.25-4.09-6.43-5.84-13.78-9.22-20.46-1.28-2.53-2.13-5.23-4.47-7.17-1.33-1.1-1.58-2.91-1.54-4.67.2-8.46-.16-16.89-1.08-25.3-.25-2.29-1.09-4.27-2.31-6.15-4.08-6.29-7.75-12.89-12.33-18.79-4.3-5.54-9.1-10.91-14.56-15.25-3.39-2.7-5.02-5.55-5.9-9.4-1.8-7.82-3.67-15.62-5.53-23.42-.93-3.89-1.95-7.69-3.84-11.33-1.64-3.15-.72-6.76.05-10.21,2-8.97,3.97-18.05,4.11-27.19.11-7.19-1.74-14.43-2.85-21.62-1.16-7.51-2.51-14.99-3.68-22.5-.34-2.2.52-4.17,1.97-5.83,5.77-6.66,9.83-14.52,15.13-21.47,3.59-4.71,4.52-9.44,3.77-15.02-.56-4.16,1.44-7.85,3.14-11.46,4.03-8.56,9.03-16.75,12.24-25.6,5.74-15.81,13.83-30.59,19.39-46.45.93-2.66,1.24-5.55,3.7-7.54.99-.8,1.33-2.31,3.17-1.44.46.22,1.5-.6,2.19-1.07,5.45-3.64,10.88-7.3,16.58-10.54.63-.36,1.3-.79,1.74-1.36,5.48-7.11,13.13-12.18,18.34-19.55,1.31-1.85,3.29-2.71,5.63-3.14,4.02-.73,8.15-1.28,11.63-3.82,1.66-1.21,3.8-1.65,5.71-1.68,3.84-.07,6.63-2.13,9.82-3.78,5.5-2.84,9.91-6.75,13.77-11.44,1-1.22,2.17-2.39,2.84-3.78,1.1-2.3,3.13-3.27,5.25-3.66,12.55-2.37,25.14-4.53,37.71-6.83,2.28-.42,4.55-.99,6.73-1.75,3.34-1.16,6.35-.45,8.08,2.53,1.47,2.53,3.43,4.51,5.61,6.38,6.72,5.78,13.27,11.77,20.18,17.3,2.38,1.91,4.04,3.78,4.42,6.24ZM240.36,23.96c.09-.94.27-1.89.26-2.83-.01-2.02-.58-3.07-3.07-2.52-10.8,2.4-21.65,4.57-32.58,6.27-4.55.71-8.68,1.84-12.14,5.37-4.13,4.22-7.49,9.1-12.01,12.98-2.11,1.81-1.89,4.6-.42,6.95,4.85,7.72,7.78,16.37,11.94,24.44,1.22,2.37,2.38,3,4.85,2.49,8.88-1.82,17.79-3.49,26.69-5.2,2.08-.4,3.62-1.27,4.52-3.41,1.31-3.1,3.12-5.95,4.87-8.85,2.1-3.49,4.96-7.03,5.04-11.14.17-8.25,1.45-16.38,2.04-24.57ZM171.79,430.78c.31-2.09.09-3.72-2.73-2.88-9.3,2.77-18.63,5.43-27.88,8.35-2.31.73-3.54.36-5.02-1.58-3.31-4.33-5.93-9.23-10.37-12.68-1.68-1.31-2.93-1.3-4.39.11-4.02,3.91-8.72,6.98-13.06,10.49-2.98,2.41-3.43,3.91-1.16,7.1,5.23,7.34,9.16,15.39,13.09,23.44.76,1.55,1.69,2.88,3.41,3.54,7.08,2.73,14.34,5.1,21.15,8.39,6.16,2.98,11.45,3.42,16.5-1.73.57-.58,1.43-.88,2.19-1.25,4.07-2.01,6.26-4.98,5.61-9.81-.27-2.04.25-4.2.44-6.3.73-8.4,1.48-16.8,2.21-25.2ZM199.32,384.42c-2.04.26-2.99,1.38-3.63,3.17-1.49,4.17-2.65,8.51-5.05,12.27-4.33,6.79-7.55,14.12-11.01,21.34-1.17,2.45-.75,4.28,1.63,5.59,3.63,1.99,7,4.37,9.85,7.37,4.3,4.52,9.33,8.21,13.86,12.47,2.66,2.5,3.99,2.34,6.87.1,7.14-5.57,14.28-11.16,21.55-16.55,4.7-3.48,4.59-3.65,2.65-9.27-3.06-8.87-6.46-17.62-9.02-26.66-.49-1.75-1.37-2.63-3.14-3.06-4.91-1.2-9.79-2.53-14.66-3.88-3.34-.92-6.66-1.95-9.9-2.9ZM275.22,527.12c0-2.85-.12-5.71.04-8.55.12-2.26-.92-3.26-2.96-3.74-9.65-2.3-19.29-4.63-28.92-7.01-2.19-.54-4.08-.5-5.84,1.19-2.28,2.19-4.79,4.13-7.05,6.34-6.05,5.92-12.63,11.21-19.17,16.55-2.29,1.87-2.52,3.79-.62,6.25,2.25,2.92,4.53,5.92,6.12,9.21,2.36,4.88,5.38,7.71,11.11,5.9.38-.12.84.03,1.26.03,6.02.05,12.04.13,18.05.15,6.96.02,13.17-.6,18.88-6.2,8.7-8.54,9.25-7.98,9.09-20.11ZM104.6,128.56c0,1.9.06,3.81-.02,5.7-.11,2.63.89,3.81,3.61,3.08,12.13-3.27,24.38-6.09,36.36-9.91,1.67-.53,2.93-1.52,3.98-2.96,3.05-4.17,6.18-8.29,9.35-12.38,1.02-1.32,2.81-2.43,1.82-4.31-.95-1.8-3.04-2.6-4.88-2.33-2.29.33-3.93-.55-5.51-1.77-1.71-1.32-3.61-2.23-5.65-2.77-2.88-.76-4.74-2.59-6.07-5.15-3.14-6.09-6.31-12.18-9.5-18.25-.71-1.35-1.36-2.62-3.34-1.24-5.62,3.92-11.17,8-17.11,11.37-3.73,2.11-4.77,4.6-4.62,8.66.4,10.77,1.18,21.51,1.57,32.26ZM91.05,187.91c-8.31.73-15.77,1.47-23.24,1.99-2.81.2-4.54,1.44-6.08,3.76-5.25,7.91-9.86,16.23-15.68,23.76-.97,1.25-1.04,2.66-.56,4.2.97,3.13,1.23,6.43,1.94,9.6,1.79,8.05,2.34,16.27,3.89,24.34.66,3.42,1.45,3.62,4.56,2.52,5.65-2.01,11.1-4.62,17.04-5.82,1.72-.35,2.78-1.54,2.95-3.31,1.03-10.72,4-21.17,4.7-31.92.18-2.73,1.12-4.89,2.76-6.8.92-1.07,2.71-1.19,3.59-2.45,2.98-4.28,7.01-7.55,10.75-11.09.9-.85,1.74-2.21.84-3.06-2.45-2.3-4.49-5.35-7.45-5.73ZM192.89,381.02c-.09-1.72-.02-2.69-.2-3.62-2.13-10.65-4.27-21.29-6.47-31.92-.23-1.11-.84-2.16-1.78-2.94-8.09-6.74-16.14-13.51-24.27-20.19-2.2-1.8-3.44-1.32-3.87,1.43-1.73,11.15-3.83,22.24-6.17,33.27-.63,2.95.39,4.4,3.08,5.14.81.22,1.58.7,2.4.79,6.58.72,9.01,4.22,10.07,10.92,2.06,12.97,5.58,25.72,8.57,38.54.38,1.62-.28,4.37,1.8,4.52,1.68.13,2.19-2.51,2.97-4.1.09-.19.14-.4.23-.59,3.81-8.46,7.02-17.21,12.08-25.06,1.39-2.16,1.73-4.49,1.57-6.2ZM151.27,168.11c.02.18,0-.24-.07-.66-1.72-10.41-3.85-20.75-4.39-31.33-.15-2.88-2.01-3.33-4.47-2.72-11.06,2.75-22.13,5.5-33.2,8.19-2.21.54-2.67,1.35-1.56,3.53,3.2,6.29,6.11,12.73,9.24,19.06,1.09,2.22.62,3.74-1.35,5.08-4.81,3.27-8.97,7.34-13.35,11.13-4.5,3.89-4.57,4.04-.17,8,2.09,1.88,3.2,4.99,6.82,5.15,4.33.19,8.55,1.36,12.75,2.43,2.29.58,4.08.11,5.69-1.65,6.71-7.33,14.26-13.76,21.66-20.35,1.59-1.41,2.54-3.09,2.41-5.87ZM274.03,373.93c.87-2.98-.77-4.98-3.06-6.24-4.28-2.36-8.07-5.37-11.99-8.22-3.15-2.3-3.91-2.22-6.09.9-6.77,9.67-13.51,19.36-20.9,28.58-1,1.24-1.2,2.43-.63,4.06,3.01,8.66,5.93,17.36,8.74,26.1,1.74,5.41,2.25,5.72,7.47,3.27,7.44-3.5,14.89-6.97,22.77-9.42,2.52-.78,3.72-2.49,3.71-5.2-.05-11.27-.02-22.55-.02-33.82ZM208.85,302.63c-.09-.53-.11-1.72-.49-2.79-1.97-5.56-4.14-11.06-6.03-16.65-1.01-3-2.83-3.37-5.37-2.25-8.03,3.54-16.47,5.91-24.78,8.66-3.39,1.12-5.32,3.03-6.4,6.29-1.73,5.2-3.36,10.47-5.59,15.46-1.43,3.21-.55,4.77,1.9,6.88,7.42,6.39,15.44,12.08,22.51,18.87,1.65,1.58,2.92,1.74,4.88.22,4.82-3.74,9.24-8.02,14.51-11.19,1.58-.95,2.69-2.32,2.88-4.3.6-6.19,1.26-12.38,1.96-19.2ZM47.51,292.56c-.43,1.8.44,3.12,1.63,4.24,2.38,2.23,4.92,4.3,7.22,6.61,5.58,5.58,11.22,11.1,17.36,16.08,1.9,1.54,3.66,1.76,4.48-.69,1.7-5.09,4.33-9.99,4.87-15.33.8-7.81,4.9-13.49,10.32-18.56,2.85-2.66,2.94-3.46.93-6.74-4.44-7.21-10.51-13.2-15.14-20.27-1.01-1.54-2.31-1.96-4.33-1.54-7.18,1.49-13.7,4.83-20.64,6.98-2.05.63-3.08,1.98-2.94,4.25.15,2.33-.29,4.62-.86,6.89-1.51,5.94-1.89,12.07-2.9,18.09ZM164.78,227.81c0-.12,0-.23,0-.35,3.59,0,7.18.03,10.77-.01,2.39-.03,4.18-.9,5.27-3.28,1.41-3.07,3.39-5.85,5.54-8.47,1.38-1.68,1.34-3.2.77-5.25-2.34-8.45-6.54-16.25-8.53-24.81-.33-1.44-1.06-2.56-2.56-2.95-6.06-1.58-11.55-4.67-17.46-6.63-1.66-.55-3.86-1.58-5.32.16-4.6,5.45-10.41,9.51-15.67,14.2-1.65,1.47-1.62,2.88-.62,4.75,5.28,9.77,9.62,19.97,13.87,30.21.82,1.97,1.87,2.51,3.79,2.45,3.38-.1,6.76-.03,10.14-.03ZM171.28,419.29c-.41-1.75-.81-3.49-1.22-5.24-2.61-11.32-5.26-22.62-7.83-33.95-2.83-12.5.36-9.04-12.09-13.49-2.27-.81-3.46-.37-4.54,1.72-2.45,4.79-5.14,9.45-7.61,14.23-1.26,2.43-2.55,4.83-3.44,7.46-2.44,7.22-3.84,14.72-6.13,21.96-.91,2.88-.29,4.76,1.6,6.81,2.71,2.95,5.45,5.92,7.68,9.22,1.77,2.62,3.65,3.23,6.4,2.13,7.87-3.13,16.22-4.68,24.27-7.21,1.83-.57,2.96-1.57,2.91-3.67ZM190.31,344.64c.5,2.06,1.17,4.5,1.67,6.98,1.67,8.28,3.27,16.58,4.91,24.87.32,1.59.74,2.96,2.76,3.36,8.49,1.71,16.84,3.94,25,6.83,2.12.75,3.25.46,4.73-1.46,6.43-8.37,11.81-17.51,18.83-25.44.66-.75,1.82-1.51,1.17-2.67-.62-1.11-1.92-.59-2.92-.59-6.02,0-12.05.01-18.07.12-1.8.03-3.45-.62-3.66-2.24-.42-3.24-2.3-5.61-3.93-8.17-3.34-5.25-7.14-10.21-9.8-15.88-.89-1.91-2.17-2.44-4.01-.97-4.93,3.96-9.63,8.23-15.03,11.6-1.15.72-1.71,1.84-1.65,3.65ZM121.98,258.64s-.1,0-.14,0c0-2.96,0-5.91,0-8.87,0-1.7-.04-3.44-1.08-4.87-3.94-5.41-5.72-11.97-9.39-17.51-1.89-2.85-3.21-6.49-6.93-7.45-5.1-1.31-10.3-2.23-15.46-3.27-2.39-.48-3.57.64-3.73,3.01-.19,2.73-.25,5.49-.7,8.19-1.19,7.18-2.57,14.33-3.86,21.5-.24,1.33-.64,2.7.42,3.92,6.2,7.19,12.01,14.68,17.29,22.59.83,1.24,1.84,2.11,3.72,1.44,5.66-2.02,11.38-3.88,17.11-5.68,2-.63,2.97-1.56,2.82-3.82-.2-3.05-.05-6.12-.05-9.18ZM98.74,108.67h.17c0-1.17,0-2.33,0-3.49,0-.91.5-2.16-.61-2.54-1.33-.45-1.76.88-2.14,1.81-2.11,5.17-4.56,10.21-6.56,15.41-6.24,16.2-12.79,32.25-20.31,47.9-2.18,4.54-.69,9.82-2.7,14.51-1.1,2.56-.14,3.47,2.69,3.19,5.04-.5,10.08-.99,15.08-1.7,3.9-.56,7.88-.63,11.2-3.62,4.54-4.08,9.44-7.76,14.28-11.5,2.16-1.67,2.54-3.49,1.14-5.74-3.5-5.64-5.01-12.32-9.28-17.56-.61-.74-.58-1.98-.91-2.97-1.2-3.63.05-7.33-.3-11-.71-7.55-1.18-15.13-1.75-22.69ZM173.08,467.97c-.3,1.21.91,2.64,2.36,3.99,4.51,4.16,8.54,8.77,12.38,13.54,1.29,1.6,2.76,1.95,4.46,1.43,9.37-2.92,18.71-5.93,28.07-8.9,1.86-.59,2.85-1.78,3.51-3.68,1.42-4.09,2.32-8.33,4.07-12.32,1.16-2.64.18-4.09-2.75-4.14-4.15-.06-8.19-.74-12.24-1.49-1.03-.19-2.21-.43-3.13-.1-3.11,1.09-4.48-.9-5.65-3.06-.57-1.05-1.19-2.02-2.03-2.78-7.34-6.68-15.16-12.78-22.88-19.01-1.75-1.41-2.48-.5-2.68,1.23-.2,1.78-.14,3.59-.33,5.37-1,9.65-2.03,19.3-3.16,29.93ZM132.4,72.63c.13.37.32,1.2.71,1.93,3.13,5.98,6.33,11.94,8.8,18.24.39,1,.94,1.94,2.01,2.33,5.67,2.03,11.07,4.68,16.54,7.18,2.12.97,3.35.29,3.65-2.2.82-6.79,1.85-13.56,2.63-20.35.22-1.87.89-2.16,2.64-2.02,5.37.44,10.71,1.08,16.03,1.92.81.13,1.74.52,2.39-.24.8-.95-.07-1.78-.43-2.6-3.59-8.33-7.26-16.64-10.79-25-1.15-2.72-2.86-3.56-5.72-2.87-7.49,1.8-14.91,3.9-22.54,5.08-1.53.24-2.76.94-3.67,2.23-3.35,4.75-7.19,9.1-11.08,13.41-.67.74-1.18,1.47-1.18,2.96ZM274.76,483.07c0-4.33.02-8.65,0-12.98-.02-2.42-1.16-3.66-3.62-4.41-4.75-1.44-9.76-2.15-14.31-3.98-5.08-2.04-8.73-2.27-12.61,2.47-4.05,4.95-9.05,9.14-14.25,12.96-1.44,1.06-1.68,2.34-.76,3.86,3.84,6.32,6.91,13.04,10.33,19.58.71,1.35,1.75,2.34,3.35,2.67,9.42,1.91,18.77,4.06,28.02,6.68,3.59,1.02,4.57.03,4.57-3.73.02-7.71-.65-15.41-.72-23.12ZM212.47,115.35c-3.32-.18-5.74-.29-8.17-.44-2.2-.14-3.83.83-4.38,2.87-1.91,6.99-6.05,12.97-8.73,19.62-1.31,3.26-1.4,5.69.89,8.35,4.76,5.53,8.42,11.86,12.67,17.77,2.07,2.88,2.5,2.93,4.72.05,4.46-5.78,7.87-12.23,11.55-18.49,1.83-3.12,4.31-4.33,7.54-4.99,8.67-1.77,17.28-3.91,26.08-5.05.63-.08,1.32-.17,1.41-.98.09-.73-.46-1.18-.97-1.53-1.56-1.08-3.14-2.13-4.75-3.14-5.69-3.59-12-6.29-16.44-11.68-1.07-1.3-2.68-1.61-4.32-1.63-6.01-.06-11.98-1.05-17.12-.74ZM273.77,420.45c.21-4.19-.65-4.84-3.89-3.19-2.92,1.49-5.95,2.7-8.94,4-7.25,3.15-14.88,5.74-21.52,9.89-8.36,5.22-15.9,11.77-23.78,17.76-.57.44-1.33.86-1.21,1.72.16,1.11,1.19,1.04,1.98,1.18,4.98.89,9.95,1.83,14.94,2.61,1.94.3,2.38,1.07,2.06,2.98-.66,3.88-2.17,7.48-3.33,11.2-.24.76-.92,1.67.06,2.26.77.46,1.4-.31,1.87-.82,4.12-4.53,9-8.3,13.13-12.79,1.97-2.15,3.77-2.64,6.36-1.8,6.72,2.18,13.7,3.46,20.35,5.91,1.65.61,2.74.27,2.73-1.71-.03-3.58.04-7.18-.18-10.75-.6-9.65-2.23-19.28-.62-28.45ZM123.8,282.47c-.56-2.04,1.07-6.03-2.6-5.57-6.98.88-13.71,3.17-20.07,6.34-.27.14-.51.39-.7.63-3.91,5.1-8,10.1-10.26,16.25-2.15,5.84-4.36,11.65-6.55,17.48-.94,2.5-.35,3.51,2.37,3.79,2.1.22,4.22.18,6.31.48,11.17,1.59,22.44,2.44,33.56,4.47,3.85.7,4.48,0,4.11-4.01-.38-4.09-.88-8.18-1.5-12.24-1.21-7.99-.53-16.29-3.97-23.92-.5-1.11-.47-2.46-.69-3.7ZM243.98,182.73c.58-2.01-.65-2.83-2.93-3.38-9.45-2.28-19.17-3.24-28.48-6.17-1.69-.53-3.44-.5-5.24.31-7.09,3.21-14.22,6.35-21.42,9.32-2.31.95-3.38,2-2.11,4.45.49.93.89,1.91,1.33,2.87,3.22,6.88,5.78,14.01,7.76,21.34.52,1.92,1.19,2.52,3.06,1.58,2.73-1.38,5.54-2.61,8.28-3.97,5.02-2.49,10.33-4.55,14.89-7.7,2.95-2.03,4.92-1.83,7.88-.63,4.49,1.81,9.23,2.99,13.88,4.4,1.45.44,2.51.31,2.37-1.69-.49-6.77.13-13.51.73-20.72ZM274.55,130.62c0-1.99.02-3.47,0-4.94-.01-.6.17-1.4-.58-1.64-.72-.24-1.19.37-1.44.94-1.52,3.49-4.19,6.31-5.53,9.92-1.53,4.12-3.58,5.13-7.92,4.63-1.33-.15-2.73.09-4.07.34-9.45,1.7-18.61,4.51-27.8,7.21-1.26.37-2.48.94-3.11,2.04-3.32,5.76-7.07,11.25-10.71,16.8-.98,1.5-.25,2.41,1.3,2.73,10,2.1,20,4.17,30.01,6.23,1.35.28,2.55.14,3.85-.76,7.28-5.03,14.88-9.59,22.14-14.67,2.15-1.5,3.34-3.05,3.29-5.62-.16-7.91-.32-15.82.6-23.2ZM143.37,361.63c.11-.91-.24-1.68-.85-2.3-5.49-5.7-10.84-11.54-15.82-17.69-1.12-1.38-2.43-1.43-3.95-.78-2.91,1.25-5.83,2.47-8.75,3.68-10.93,4.48-21.85,8.97-32.79,13.42-2.81,1.14-3.26,2.43-1.34,5.05,3.12,4.26,6.13,8.57,8.32,13.41.93,2.06,2.27,2.68,4.56,1.46,4.7-2.49,8.57-6.11,12.97-9.01,1.93-1.28,3.26-1.26,5.11-.07,6.41,4.1,12.33,8.88,18.55,13.25,2.25,1.58,3.71,1.34,4.96-1.27,2.46-5.14,5.09-10.2,7.71-15.27.64-1.24,1.09-2.51,1.34-3.87ZM241.56,294.71s.09,0,.13,0c0-.53-.01-1.06,0-1.58.11-4.81-.06-5.04-4.79-6.14-3.69-.86-7.39-1.65-11.01-2.84-5.5-1.79-11.13-3.17-16.73-4.66-.95-.25-2.12-.84-2.92.29-.75,1.06-.02,2.04.47,2.93,3.28,5.97,4.6,12.67,7.11,18.92.29.73.37,1.78.06,2.46-1.61,3.56-1.26,7.46-2.11,11.13-.99,4.3-.6,8.11,1.88,12.02,3.84,6.04,8.17,11.8,11.18,18.36.4.88.97,2.03,2.31,1.78.9-.17,1.36-.97,1.66-1.78,2.82-7.62,6.47-14.84,9.96-22.16,2.77-5.82,4.73-11.91,3.43-18.64-.63-3.28-.45-6.73-.63-10.1ZM272.89,57.5s0,0,0,0c0-2.85-.1-5.7.03-8.54.14-3.03-1.04-5.22-3.47-7.01-4.33-3.2-8.37-6.75-12.18-10.57-2.91-2.91-5.98-5.65-9.01-8.44-1.66-1.53-3.14-1.71-3.17,1.07-.08,7.5-1.67,14.92-1.3,22.42.13,2.68-.33,5.16-1.7,7.26-3.76,5.74-6.5,12.07-10.35,17.73-1.31,1.92-.8,2.92.75,3.8,5.04,2.87,10.15,5.62,15.23,8.43,1.62.89,3.24,1.06,4.73-.19,4.81-4.02,10.4-6.82,15.63-10.18,3.21-2.07,5.37-4.61,4.85-8.82-.28-2.29-.05-4.63-.05-6.95ZM237.28,351.77c0,.06,0,.13.01.19,4.93-.34,9.86-.85,14.79-.96,2.37-.05,5.11.32,6.82,1.98,3.81,3.71,8.82,5.79,12.49,9.65.66.69,1.72,1.66,2.76,1.01.91-.57,1.01-1.89.82-2.91-1.1-6.19-.91-12.39-.48-18.61.69-10.11-.74-20.27.67-30.36.1-.72.02-1.49-.11-2.21-.51-2.95-2.08-3.82-4.9-2.74-6.7,2.55-13.39,5.14-20.1,7.67-2.3.87-3.88,2.34-4.95,4.58-4.64,9.73-7.17,20.29-12.04,29.93-.94,1.87-.33,3.08,2,2.92.74-.05,1.47-.09,2.21-.14ZM249.31,258.31c1.06-.49,2.57-.07,3.86-1.2,5.14-4.52,10.43-8.86,15.6-13.36,3.45-3,3.3-3.47.14-6.7-7.14-7.31-14.63-14.31-21.06-22.29-2.63-3.26-3.2-3.21-6.57-.47-5.71,4.64-11.11,9.69-17.28,13.75-1.6,1.05-2.56,2.52-3.09,4.26-1.73,5.72-3.18,11.38,2.51,16.02,1.19.97,1.88,2.53,2.88,3.76.86,1.06,1.74,2.28,3.14,2.56,6.52,1.27,13.06,2.43,19.89,3.68ZM195.91,114.29c0-.07.07-.51,0-.92-1.65-9.02-3.33-18.03-4.96-27.05-.3-1.67-1.46-1.8-2.8-1.91-4.83-.39-9.68-.7-14.48-1.3-2.93-.37-3.99.69-4.13,3.55-.22,4.73-.5,9.47-1.96,14.06-.3.93-.27,2.29.22,3.07,1.67,2.66.53,4.9-1.19,6.57-4.73,4.59-8.18,10.15-12.32,15.18-2.68,3.25-2.65,3.99,1.31,4.82,9.4,1.98,18.66,4.51,27.84,7.34,1.71.53,2.99.14,3.53-1.57,1.89-5.98,5.26-11.27,7.79-16.95.65-1.45,1.31-2.89,1.16-4.89ZM91.7,386.92c.75,5.93,1.11,10.55,1.16,15.2.02,2.41-.26,4.99.91,7.16,3.19,5.96,5.89,12.11,8.01,18.52.82,2.5,2.32,2.64,4.29,1.04,4.33-3.52,8.69-7.01,13.09-10.46,2.16-1.69,3.48-3.8,4.24-6.46,2-6.99,4.19-13.93,6.32-20.88.55-1.78.4-3.19-1.36-4.37-6.03-4.05-11.98-8.21-17.96-12.33-1.73-1.19-3.3-1.4-5.18,0-3.04,2.25-6.28,4.23-9.43,6.34-2.69,1.8-4.75,3.92-4.07,6.24ZM56.18,328.45c.13,4.17.78,8.03,4.35,10.99,4.53,3.75,7.88,8.68,12.13,12.76,2.44,2.34,4.28,2.55,7.22,1.27,9.17-4,18.45-7.76,27.72-11.52,5.18-2.1,10.44-3.97,15.64-6.03,1.69-.67,3.52-1.91,3.31-3.73-.19-1.65-2.42-1.17-3.79-1.52-.3-.08-.63-.01-.95-.06-6.69-.88-13.41-1.56-20.1-2.35-8.45-1-16.77-3.15-25.42-2.74-2.66.13-5.28-1.31-7.23-3.78-4.85-6.16-11.24-10.8-16.77-16.3-.52-.52-1.19-1.08-1.94-.49-.68.53-.48,1.36-.23,2.06.68,1.88,1.39,3.76,2.15,5.62,2.08,5.09,3.99,10.21,3.91,15.84ZM162.29,287.85c1.42-.28,2.6-.38,3.68-.75,10.07-3.46,20.01-7.27,29.88-11.27,1.95-.79,2.38-1.7,1.5-3.55-1.9-4-3.9-7.97-5.48-12.1-.97-2.53-2.53-4.41-4.69-5.75-3.58-2.22-7.28-4.25-10.97-6.29-1.93-1.07-3.59-.75-4.99,1.1-.89,1.17-1.96,2.22-3.06,3.19-9.94,8.82-19.91,17.59-29.84,26.42-1.36,1.21-3.72,2.26-3.17,4.25.5,1.81,2.99,1.06,4.56,1.32,7.6,1.24,15.29,1.77,22.59,3.44ZM180.7,178.82c2.99.16,4.57-1.51,6.51-2.27,4.41-1.74,8.82-3.5,13.19-5.34,2.03-.85,2.83-2.23,1.16-4.18-6.06-7.07-11.01-14.95-16.39-22.51-1.13-1.59-2.62-2.36-4.43-2.78-8.43-1.97-16.86-3.97-25.29-5.94-4-.94-4.24-.7-3.63,3.36,1.44,9.49,2.9,18.97,4.3,28.47.27,1.81,1.18,2.8,2.94,3.25,3.59.93,6.98,2.42,10.41,3.81,3.9,1.58,7.9,2.92,11.23,4.13ZM169.63,473.46c-.61.28-1.21.49-1.73.82-2.49,1.58-4.83,3.48-7.48,4.72-3.4,1.6-4.8,4.11-5.06,7.7-.33,4.52-.78,9.04-1.41,13.53-.32,2.26.45,3.46,2.4,4.54,14.19,7.88,28.76,15.09,42.35,24.01.82.54,1.69,1.17,2.59.5,1-.74.41-1.76-.03-2.57-3.21-6-4.58-12.69-7.15-18.91-2.09-5.05-2.9-10.71-6.27-15.13-4.92-6.44-10.55-12.29-16.3-18.01-.51-.5-1.23-.79-1.9-1.21ZM274.21,167.37c.21-1.21.85-2.71-.48-3.5-1.45-.85-2.57.24-3.65,1.11-5.67,4.59-12,8.23-18.01,12.34-2.2,1.5-3.21,3.24-3.37,5.68-.45,6.85-.81,13.7-1.29,20.55-.17,2.42.79,4.35,2.29,6.04,6.85,7.74,13.76,15.43,20.65,23.14.63.7,1.21,1.65,2.34,1.14.96-.44.66-1.46.7-2.26.25-5.37.09-10.74.06-16.12-.07-16.03.46-32.07.76-48.11ZM224.65,111.58c1.47,0,2.95-.01,4.42,0,1.82.02,3.32-.59,4.29-2.2,3.61-5.95,7.22-11.91,10.82-17.87.94-1.56.72-2.91-.97-3.67-5.52-2.51-10.22-6.31-15.29-9.53-1.72-1.09-3.54-1.73-5.7-1.2-7.47,1.85-14.94,3.75-22.48,5.32-2.92.61-3.5,1.88-3.01,4.58,1.01,5.6,2.33,11.17,2.56,16.89.23,5.73.18,6.13,5.83,6.28,6.55.17,12.98,1.56,19.53,1.4ZM274.4,78.37c.07-2.6-.89-2.61-2.4-1.94-3.89,1.75-6.73,5.21-10.55,6.9-12.32,5.44-17.27,17.03-23.56,27.53-1.18,1.97-.78,3.77,1.29,5.13,7.21,4.76,14.43,9.5,21.02,15.12,1.67,1.43,3.05.99,4.07-.92,1.14-2.14,2.14-4.37,3.51-6.35,4.36-6.3,6.67-12.84,6.14-20.87-.55-8.33-1.55-16.85.47-24.61ZM163.34,232.94c-4.96.56-9.98-.51-14.94,1.54-6.03,2.48-11.84,5.65-18.26,7.07-2.75.61-3.5,2.22-3.43,4.77.14,5.38-.02,10.76-.29,16.15-.26,5.15-.02,10.34,1.51,15.35.86,2.81,2.53,3.27,4.54,1.08,8.21-8.93,17.78-16.44,26.37-24.98,3.99-3.97,9.13-6.82,11.87-12,1.33-2.53,2.7-5,4.53-7.21.48-.58.95-1.2.51-1.99-.45-.81-1.27-.61-1.99-.56-3.47.25-6.94.53-10.42.79ZM94.55,212.56c4.48.14,8.48.91,12.5,1.83,2.64.61,4.18,1.85,5.33,4.26,3.06,6.36,6.34,12.62,9.58,18.89.7,1.35,1.81,2.12,3.39,1.31,6.11-3.15,12.62-5.31,19.05-7.69,3.08-1.14,3.5-2.44,2.07-5.31-4.47-8.95-9.31-17.73-12.71-27.19-.74-2.05-2.18-2.55-3.9-.95-.76.71-1.51,1.51-1.99,2.42-.79,1.49-2.15,1.9-3.46,1.57-5.84-1.48-11.96-1.47-17.69-3.38-2.55-.85-4.5-.32-6.25,1.62-2.9,3.21-5.86,6.37-8.8,9.55-.58.63-1.26,1.27-.84,2.2.4.9,1.33.95,2.19.94.63,0,1.27-.06,1.54-.07ZM273.47,273.24c-.17,0-.34,0-.51,0,0-7.39.04-14.77-.04-22.16-.01-1.18.55-2.87-.74-3.46-1.25-.57-2.27.82-3.15,1.65-3.47,3.23-7.03,6.36-10.76,9.29-2.09,1.64-3.73,3.69-4.92,6.11-2.43,4.94-4.1,10.17-5.91,15.34-.83,2.37-1.5,4.82-1.42,7.41.19,6.53,1.07,13.03.71,19.58-.13,2.36.48,3.39,3.1,2.35,6.37-2.53,12.77-4.97,19.23-7.26,3.31-1.17,4.51-3.31,4.46-6.7-.13-7.38-.04-14.76-.04-22.14ZM135,288.3c-3.47-.41-4.27.69-3.88,3.24,1.44,9.28,2.38,18.62,3.05,28,.18,2.6.19,5.39,1.83,7.6,1.95,2.63.5,4.27-1.37,5.85-.88.74-1.86,1.39-2.87,1.94-2.61,1.41-2.42,2.98-.6,5,4.1,4.53,8.39,8.9,12.01,13.86.54.74.97,1.84,2.12,1.59,1.28-.27,1.36-1.56,1.54-2.54,1.47-8.2,2.78-16.42,4.33-24.6.84-4.43.72-9,2.29-13.34,2.3-6.34,4.53-12.69,7.2-18.88,1.42-3.28,1.01-3.87-2.49-4.12-5.58-.39-11.14-.89-16.58-2.33-2.44-.65-4.97-.95-6.58-1.25ZM191.17,248.73c.87-.21,1.57-.44,2.29-.54,5.49-.78,9.73-4.6,14.81-6.17,5.27-1.62,7.09-4.97,7.19-10.01.06-2.94,1.5-5.05,4.03-6.7,6-3.92,10.84-9.37,17.03-13.07.75-.45,1.36-1.14,1.26-2.06-.12-1.1-1.18-1.11-1.96-1.26-3.34-.64-6.47-1.9-9.59-3.19-1.77-.73-3.45-.69-5.16.29-9.72,5.58-20.18,9.62-30.19,14.6-.98.49-1.91.96-2.35,1.99-2.64,6.14-6.36,11.65-10.08,17.15-.54.8-1.13,1.86-.09,2.54,4.04,2.64,7.99,5.49,12.8,6.42ZM222.85,481.55c-.14.04-.44.12-.74.21-8.86,2.71-17.3,6.68-26.39,8.72-2.62.59-2.8,1.92-1.87,4.41,4.01,10.77,8.41,21.4,11.78,32.39.74,2.42,1.41,2.9,3.6,1.16,8.78-6.94,16.82-14.73,25.48-21.79,1.19-.97,2.17-2.1,1.24-3.79-3.6-6.56-7.19-13.13-10.82-19.67-.44-.79-.9-1.75-2.27-1.64ZM212.17,245.8c-.32.02-1.1.24-1.85.7-4.06,2.51-8.4,4.49-12.93,5.9-2.49.78-2.62,1.97-1.71,3.95,1.96,4.21,4.22,8.32,5.73,12.69,1.05,3.03,2.72,4.42,5.69,5.08,10.52,2.33,20.86,5.36,31.19,8.41,2.08.62,3.2.03,3.91-1.91,1.81-4.96,3.41-9.99,5.57-14.83.85-1.89.11-3.15-2.18-2.88-1.84.22-3.54-.36-5.3-.69-2.79-.51-5.31-2.45-8.24-1.93-3.32.59-5.86-.65-7.9-2.96-2.72-3.08-5.25-6.33-7.76-9.59-.98-1.28-2.06-2.09-4.24-1.96Z"/>
      <path d="M332,558.19c-7.33.3-14.01-1.05-20.56,1.02-1.15.37-2.29-.32-2.87-1.49-2.29-4.58-6.14-7.68-10.06-10.74-1.99-1.55-4.01-3.1-5.77-4.89-1.26-1.29-1.62-3.06-1.63-4.97-.1-10.77.89-21.49,1.17-32.24.34-12.88-.11-25.79.13-38.67.33-17.52-.87-35.02-.25-52.55.28-7.98-.88-16-.94-24.01-.14-19.44.47-38.89-.21-58.3-.33-9.33.41-18.53.82-27.76,1.01-23.03-.64-46.03-.15-69.05.37-17.39-.54-34.81-.53-52.21.01-23.75.48-47.51.53-71.26.04-18.91.52-37.82-.41-56.72-.25-5.1,1.21-9.2,6.13-11.82,4.47-2.38,7.17-6.84,10.39-10.55,4.85-5.59,10.01-10.84,15.27-16.03,2.23-2.2,3.47-5.16,6.08-7.2,2.96-2.31,6.24-2.26,8.47-.49,5.49,4.35,12.29,4.08,18.32,6.35,3.51,1.32,7.07-.57,10.55.56,1.52.49,2.96.83,4.08,2.16,1.32,1.57,3.32,2.22,5.14,3.03,7.93,3.5,15.83,7.02,23.53,11.03,3.57,1.86,7.65,2.58,11.61,3.04,4.45.52,8.69,1.6,12.98,2.77,3.09.85,6.16,1.99,9.6.91,1.57-.49,3.23.75,4.38,2.08,3.86,4.45,8.92,7.7,12.16,12.82,1.63,2.58,4.69,3.98,7.39,5.34,4.68,2.36,8.39,6.4,13.8,7.54,1.79.38,1.6,2.51,1.31,4.12-.83,4.47-1.72,8.94-3.21,13.23-.82,2.34-.16,3.57,2.09,4.35,5.08,1.79,10.1,3.75,15.2,5.49,2.3.79,3.71,2.18,4.52,4.45,3.55,9.83,5.98,20.02,9.89,29.74,1.88,4.66.61,9.84.95,14.78.32,4.53.55,9.07.61,13.61.03,2.4.78,4.27,2.52,5.89,2.59,2.42,4.06,5.53,5.68,8.66,6.73,13.01,11.68,26.97,20.58,38.84,2.72,3.63,5.13,7.49,7.5,11.36,1.32,2.15,1.46,4.75.72,7.07-4.28,13.45-5.72,27.25-5.3,41.27.16,5.27-.51,10.54.29,15.83.31,2.07-.53,4.21-1.54,6.08-3.99,7.37-7.28,14.97-8.64,23.34-.86,5.26-3.65,9.91-5.68,14.75-2.08,4.97-.25,9.57-.08,14.33.05,1.37.28,2.73.52,4.08.34,1.93.07,3.28-2.29,3.59-1.4.18-2.34,1.41-3.19,2.48-3.73,4.72-8.02,8.98-11.35,14.03-1.39,2.11-3.2,3.86-5.11,5.58-4.86,4.36-7.61,9.98-8.62,16.39-.54,3.44-1.12,6.86-1.99,10.24-.37,1.42-.73,2.98-.52,4.39,1,6.72-2.9,10.68-7.72,14.12-1.77,1.26-2.61,2.9-3.1,4.94-2.12,8.72-4.29,17.43-6.52,26.13-.37,1.44-1.27,2.7-2.43,3.62-8.86,7-17.57,14.19-26.67,20.87-8.89,6.53-14.66,15.34-19.7,24.81-.86,1.61-1.92,2.87-3.63,3.25-7.32,1.64-13.49,5.86-20.19,8.88-2.02.91-3.79,2.5-5.87,3.09-4.21,1.19-6.79,4-8.92,7.51-3.53,5.83-8.79,10.51-11.01,17.28-.73,2.23-2.82,4.1-5.24,5.29-5.67,2.79-10.32,6.96-14.66,11.46-2.22,2.3-4.8,3.22-7.96,3.12-3.69-.13-7.39-.03-10.37-.03ZM449.83,245.13c-.86-4.07-3.24-8.1-5.13-12.3-1.35-3-2.37-6.33-5.62-8.19-10.17-5.82-20.3-11.7-30.38-17.65-2.81-1.66-5.28-1.21-7.53.73-3.3,2.84-7.13,4.88-10.69,7.3-6.11,4.15-6.14,4.03-4.92,11.35,1.32,7.91,2.55,15.84,3.8,23.76.26,1.63.43,3.37,2.75,2.88,3.2-.66,6.6-.97,9.47-2.36,2.42-1.17,3.39-.3,4.14,1.41.52,1.19,1.24,2.19,1.92,3.24,5.19,7.95,12.31,14.47,16.79,22.96,1.19,2.26,2.92,1.65,4.17-.27,5.45-8.3,11.77-15.96,17.56-24.01,1.77-2.46,3.57-5.01,3.66-8.86ZM375.62,166.44c-2.11,0-4.22.1-6.32-.03-2.71-.17-4.65.97-6.17,3.11-2.13,3-4.28,6-6.48,8.95-4.1,5.5-8.24,10.97-12.38,16.43-2.34,3.09-2.14,3.87,1.37,5.23,1.18.46,2.41.83,3.51,1.45,9.21,5.16,19.25,8.63,28.39,13.94,1.52.89,3.08.94,4.39-.3,3.66-3.46,8.28-5.39,12.42-8.08,4.24-2.76,8.47-5.5,10.52-10.86,3.23-8.47,5.99-17.14,9.85-25.37.49-1.05.93-2.13,1.28-3.23.6-1.86.02-2.71-2.09-2.71-12.78-.02-25.52.94-38.29,1.47ZM385.8,253.95c-.12-.54-.38-1.57-.56-2.6-1.47-8.62-3.17-17.2-4.24-25.87-.36-2.88-1.42-4.39-3.78-5.51-11.71-5.56-23.39-11.17-35.1-16.72-1.62-.77-3.47-1.65-4.94.07-1.45,1.69-1.47,3.85-.2,5.6,3.17,4.39,5.29,9.34,7.9,14.03,3.02,5.44,6.13,10.83,9.28,16.19.59,1,.91,1.69-.36,2.23-7.06,3-12.14,9.02-18.96,12.4-1.6.79-1.53,2.05-.42,3.39,1.25,1.5,3.02,2.29,4.54,3.41,8.53,6.29,15.23,14.58,23.31,21.37,2.94,2.47,3.52,2.61,5.72-.48,5.67-7.97,11.25-16.01,16.84-24.05.6-.86,1.04-1.85.97-3.46ZM362.84,142.15c.9,4.94,1.7,9.72,2.66,14.47.45,2.25,1.86,2.04,3.59,1.2,8.99-4.4,17.72-9.31,26.74-13.68,10.24-4.96,20.43-10.07,30.16-16.01,1.15-.7,2.34-1.54,3.74-.33,2.2,1.9,3.71,1.11,4.9-1.27,2.97-5.95,5.06-12.31,8.4-18.09.86-1.49.26-2.39-1.29-2.81-6.75-1.82-13.09-4.74-19.56-7.29-2.16-.85-4.04-.66-5.85.97-3.44,3.11-7.04,6.04-10.47,9.16-5.37,4.89-10.67,9.86-15.97,14.84-.72.68-1.37,1.57-2.36.69-4.64-4.13-10.34-6.87-14.74-11.32-1.97-1.99-3.24-1.6-3.89,1.14-.97,4.11-1.86,8.23-2.74,12.36-1.14,5.36-2.23,10.73-3.31,15.97ZM371.74,407.48c-.07-.74-.05-1.49-.21-2.2-2.89-12.42-5.81-24.83-8.7-37.24-.63-2.72-2.18-2.98-4.47-1.89-6.27,3-12.61,5.86-18.86,8.91-1.58.77-3.03,1.86-3.68,3.72-3.54,10.14-7.11,20.27-10.73,30.38-.73,2.03-.31,3.71.99,5.29,4.67,5.71,8.88,11.76,13.09,17.81.89,1.28,1.99,2.36,3.66,1.92,4.49-1.17,8.95-2.45,13.41-3.73,1.06-.3,1.7-1.18,2.33-2.06,3.47-4.9,7.04-9.72,10.4-14.69,1.26-1.87,3.03-3.63,2.78-6.23ZM400.2,323.16c.03.52-.04,1.18.14,1.77,1.01,3.33,2.08,6.63,3.14,9.95,1.2,3.77,2.14,4.16,5.75,2.83,9.08-3.34,18.06-6.98,27.51-9.22,2.19-.52,3.51-1.8,3.86-4.06,1.39-9.06,3.22-18.02,5.65-26.86.5-1.83.32-3.56-1.76-4.1-5.21-1.33-9.8-4.47-15.27-5.04-1.97-.2-3.61-1.52-4.6-3.11-4.91-7.88-10.7-15.13-16.08-22.68-.71-1-1.22-2.65-2.66-2.31-1.74.41-1.3,2.24-1.23,3.5.45,7.39-.51,14.73-.82,22.08-.52,12.43-2.39,24.75-3.62,37.24ZM465.19,149.71c.67.11,1.43-.02,1.95-.59,3.53-3.87,8.05-6.83,10.58-11.64,1.08-2.05,2.83-3.63,5.13-3.88,3.3-.35,6.36-1.51,9.54-2.25,3.63-.85,4.22-1.91,2.73-5.35-3.45-7.98-5.5-16.41-8.21-24.63-.67-2.04-1.66-3.27-3.64-3.94-4.89-1.66-9.84-3.17-14.52-5.41-2.19-1.04-4.28-.7-6.08,1.13-3.49,3.54-7.33,6.68-11.18,9.82-1.22.99-2.51,2-3.06,3.56-2.72,7.69-6.73,14.79-10.05,22.2-1.07,2.38-.69,4.27,1.53,5.37,8.1,4.01,15.04,9.76,22.52,14.69.82.54,1.66.91,2.76.91ZM395.64,68.02c4.33.21,8.42-.6,12.38-2.28,2.43-1.03,4.9-1.98,7.38-2.86,8.15-2.91,16.3-5.82,24.49-8.61,2.11-.72,2.18-1.57.91-3.11-1.95-2.38-3.9-4.69-7.06-5.58-9.65-2.71-19.43-4.81-29.3-6.51-4.49-.77-8.89-1.86-12.86-4.22-7.36-4.39-15.39-7.41-23.01-11.28-1.27-.64-2.42-.56-3.11,1.01-3.04,6.85-5.77,13.8-7.84,21.01-.64,2.23.19,3.75,1.86,4.92,6.15,4.31,11.71,9.32,17.35,14.24,1.1.96,2.31,1.45,3.7,1.6,5.03.57,10.07,1.11,15.11,1.67ZM481.77,284.58c-.92.17-1.85.34-2.77.53-7.57,1.49-14.72,4.51-22.23,6.21-4.65,1.06-6.92,4.17-7.42,8.71-.95,8.63-3.29,16.95-5.46,25.31-.47,1.82-.23,3.31.87,4.73,5.35,6.94,11.93,12.8,17.36,19.65,3.67,4.64,7.3,6.45,13.04,3.06,2.74-1.62,4.05-2.87,3.51-5.99-1.43-8.21-2.68-16.44-4.15-24.64-.49-2.72-1.07-5.19,2.74-5.77.35-.05.67-.5.94-.82,4.71-5.54,9.41-11.1,14.12-16.65.95-1.12,1.17-2.32.03-3.37-2.83-2.61-4.34-6.2-6.82-9.09-1.11-1.3-2.14-1.9-3.77-1.87ZM297.1,302.18c0,3.8.17,7.61-.05,11.4-.19,3.35.38,6.4,1.69,9.51,5.76,13.6,11.37,27.27,16.96,40.94.85,2.07,2.12,3.25,4.32,3.66,4.58.86,9.07,2.01,13.22,4.25,1.44.78,2.91.56,4.25-.21,4.86-2.79,9.95-5.07,15.23-6.96,1.41-.5,3.46-.77,3.57-2.66.09-1.62-1.7-2.26-2.89-3.08-8.61-5.92-17.2-11.85-25.88-17.66-2.57-1.72-3.86-3.51-4.31-6.93-1.3-9.82-3.32-19.56-5.42-29.24-.62-2.88-.55-6.14-2.91-8.52-4.9-4.95-9.75-9.96-14.64-14.92-.63-.64-1.24-1.71-2.33-1.19-.89.42-.65,1.51-.58,2.3.59,6.44-.1,12.87-.21,19.31ZM296.55,530.42s-.09,0-.14,0c0,1.48.14,2.97-.03,4.43-.39,3.33,1.09,5.71,3.59,7.61,3.78,2.87,7.35,5.98,10.74,9.29,1.14,1.12,2.43,1.73,3.93,1.75,5.26.05,10.5.91,15.79.21,2.39-.31,4.85-.39,7.25-.25,2.18.13,4.21-.22,6.17-1.03,7-2.9,12.53-8.09,18.77-12.16,2.02-1.32,2.03-3.26.09-5.04-3.8-3.49-7.64-6.94-11.25-10.62-3.16-3.21-6.34-5.75-11.21-6.14-6.68-.54-13.02-3.37-19.9-3.19-6.14.16-11.7,2.56-17.44,4.15-6.83,1.89-6.73,2.25-6.46,9.42.02.53.05,1.05.08,1.58ZM367.68,488.07c.31-.05.63-.1.94-.15,16.94-2.96,33.88-5.91,50.81-8.88.69-.12,1.64-.11,1.61-1.13-.03-.86-.83-1.16-1.55-1.37-10.05-2.98-19.32-7.99-29.23-11.31-2.26-.76-4.42-1.78-7.05-1.33-1.5.26-2.94-.96-3.87-2.36-6.03-9.09-13.83-16.76-20.42-25.39-1.11-1.46-2.37-1.75-4.16-1.14-2.89.99-5.87,1.73-8.83,2.51-2.07.55-2.94,1.73-3.36,3.94-.95,4.96-1.23,10.09-3.27,14.81-.84,1.95-.09,3.53,1.26,4.88,7.92,7.92,15.51,16.14,22.78,24.66,1.13,1.32,2.48,2.3,4.34,2.28ZM462.58,157.99c.09-3.09-1.08-4.87-3.08-6.14-2.13-1.36-4.33-2.62-6.46-3.99-7.45-4.79-14.9-9.59-22.32-14.43-1.4-.91-2.72-1.05-4.13-.18-2.98,1.84-6.35,2.84-9.45,4.42-10.33,5.28-20.71,10.49-30.87,16.09-3.99,2.2-7.99,4.28-12.23,5.92-.65.25-1.58.48-1.3,1.44.21.72,1.07.51,1.66.59.41.06.85.03,1.26,0,12.41-1.07,24.86-1.1,37.3-1.36,1.99-.04,4.21.21,5.87-.92,2.18-1.49,3.67-.46,4.98.89,8.08,8.32,16.1,16.7,24.07,25.12,1.64,1.73,2.77,1.85,3.59-.56,1.99-5.81,5.15-11.12,7.27-16.85,1.31-3.54,3.58-6.74,3.82-10.04ZM366.01,361.36c.16.96.25,1.9.47,2.82,2.09,8.94,4.24,17.86,6.27,26.81.76,3.34,1.49,3.79,4.38,1.83,10.22-6.92,19.94-14.55,30.38-21.15,1.17-.74,1.53-1.72,1.35-3.23-.53-4.46-2.33-8.54-3.49-12.81-2.54-9.35-7.51-17.93-8.76-27.71-.23-1.85-1.74-2.45-3.62-2.08-4.14.81-8.29,1.61-12.46,2.29-2.53.41-3.79,2.03-4.64,4.22-3.28,8.46-5.29,17.37-9.15,25.62-.48,1.02-.51,2.25-.75,3.39ZM458.24,389.03c-5.08,1.52-10.82,2.94-14.95,6.91-4.3,4.13-7.87,9.07-11.46,13.88-4.82,6.46-4.68,6.54-.21,13.33,2.34,3.55,4.91,7.16,8.33,9.44,7,4.68,14.5,8.6,21.81,12.8,1.93,1.11,3.31.63,3.65-1.67,1.15-7.76,3.79-15.15,5.52-22.76.75-3.28,2.11-5.92,4.82-7.86,2.67-1.91,3.99-4.57,4.32-7.77.32-3.05.68-6.1,1.64-9.02.78-2.38-.26-3.36-2.43-3.69-4.69-.71-9.4-1.38-14.08-2.15-2.18-.36-4.33-.89-6.97-1.45ZM310.03,259.67c-4.04,0-6.89.04-9.74-.01-1.65-.03-3.1.3-3.26,2.18-.45,5.38-.96,10.71,3.84,14.89,6.69,5.82,12.71,12.32,18.69,18.86,1.02,1.12,2.33,1.76,3.81,2.11,8.31,1.97,16.63,3.94,24.92,5.99,2.09.52,3.68,0,5.12-1.51,3.04-3.21,5.99-6.5,9.23-9.5,2.27-2.1,1.9-3.62-.19-5.42-3.27-2.82-6.66-5.55-9.66-8.65-6.53-6.77-13.74-12.74-21.08-18.56-1.68-1.33-3.41-1.93-5.54-1.73-5.77.53-11.55.97-16.14,1.34ZM529.27,260.12c.06-4.08-1.41-6.22-5.25-7.65-3.27-1.22-6.49-2.54-9.55-4.22-2.22-1.22-4.51-1.59-7.01-.82-4.74,1.47-9.51,2.82-14.27,4.19-1.18.34-1.7.98-1.8,2.23-.46,6.01-2.09,11.83-3.03,17.77-.96,6.05-1.24,11.28,3.27,16.42,3.24,3.69,6.09,7.4,10.74,9.43,5.11,2.23,10.08,4.8,15.1,7.24,2.53,1.23,3.52.76,4.22-2.07.93-3.8,2.26-7.45,3.89-11.03,1.25-2.75,3.09-5.22,3.38-8.45.68-7.68.64-15.35.32-23.04ZM402.13,260.05c-.58-1.67.86-3.76-1.28-4.69-2.17-.94-11.14,1.94-12.57,3.84-5.23,6.98-9.72,14.5-15.48,21.12-1.8,2.07-3.85,4.73-3.47,7.56.36,2.66-.67,4.14-2.19,5.75-3.47,3.68-6.95,7.35-10.42,11.03-1.3,1.38-1.55,3.04.09,4.09,6.52,4.16,11.98,9.63,18.06,14.34,1.61,1.25,3.17,1.53,5,.95,3.54-1.11,7.18-1.65,10.87-1.99,4.38-.4,4.86-1.03,5.76-5.24,1.61-7.57,1.23-15.34,2.45-22.93,1.82-11.27,1.21-22.74,3.19-33.83ZM534.22,223.86c-.35-.81-.54-1.69-1.04-2.32-4.08-5.28-6.88-11.38-10.74-16.79-1.79-2.5-3.55-4.97-4.56-7.91-3.47-10.12-9.56-19.01-13.67-28.83-.4-.94-1.06-2.06-2.24-1.94-1.02.11-1.37,1.25-1.63,2.16-1.9,6.51-5.29,12.4-7.85,18.65-1.91,4.66-2.08,8.82-.17,13.36,5.3,12.65,10.49,25.34,15.68,38.03.59,1.44,1.38,2.58,2.84,3.22,5.02,2.2,9.84,4.81,14.99,6.73,2.32.86,3.39.46,3.38-2.15,0-3.62.77-7.1,1.84-10.56,1.18-3.82,2.13-7.72,3.19-11.64ZM497.39,300.04c-1.27-.29-2.15.92-3.02,1.94-4.79,5.6-9.54,11.24-14.28,16.88-.97,1.16-1.74,2.57-1.36,4.07,1.71,6.69,1.42,13.64,2.68,20.35.76,4.04.26,8.56,3.09,12.08,2.97,3.69,6.04,7.32,9.08,10.95,1.44,1.72,2.86,1.58,4.11-.24,4.18-6.08,8.71-11.9,13.83-17.22,2.42-2.51,2.92-5.2,1.76-8.37-2.06-5.61-1.4-10.87,1.67-16.03,2.04-3.43,3.66-7.11,4.65-11.04.62-2.44-.53-4.02-2.55-4.78-5.65-2.13-10.97-4.91-16.25-7.79-.96-.53-1.95-.76-3.42-.82ZM460.89,450.06c-.27-.8-1.11-1.21-1.92-1.66-6-3.31-12.06-6.51-17.97-9.97-3.2-1.87-6.45-2.39-10.01-1.76-5.92,1.06-11.93,1.33-17.9,1.95-3.4.35-7.25.05-9.89,2.67-4.85,4.82-9.5,9.86-14.06,14.96-2.25,2.51-1.83,3.05,1.3,4.27,11.68,4.58,23.39,9.09,34.89,14.1,2.89,1.26,4.52,1.01,6.7-.86,8.69-7.49,17.73-14.54,26.96-21.36.77-.57,1.54-1.12,1.91-2.34ZM487.75,248.75c.82-.16,1.7-.18,2.46-.49,3.82-1.53,7.64-3.01,11.66-3.97,2.26-.54,2.8-1.95,1.83-4.32-5.38-13.17-10.63-26.4-15.86-39.63-1.3-3.29-1.58-3.4-4.64-1.51-6.37,3.93-12.32,8.49-18.42,12.79-5.67,4-11.9,7.23-17.06,11.98-1.53,1.4-1.86,2.44-.77,4.28,1.76,2.99,3.24,6.15,4.81,9.25,2.39,4.73,2.38,4.78,7.7,3.47,2.63-.65,5.55-1.09,7.75.15,5.2,2.93,10.93,4.41,16.34,6.72,1.36.58,2.64,1.36,4.22,1.28ZM466.82,72.17c.04-1.38-.65-2.38-1.76-2.86-6.13-2.64-11.04-7.33-17.15-10.05-2.49-1.11-4.66-1.41-7.25-.45-11.26,4.18-22.56,8.26-33.88,12.27-2.16.77-1.54,1.75-.71,3.03,3.23,4.95,6.99,9.5,10.86,13.95,1.84,2.12,2.71,5.33,5.65,6.21,6.97,2.09,13.79,4.56,20.53,7.28,1.82.73,3.42.14,4.54-1.23,1.96-2.41,4.51-4.1,6.78-6.12,4.77-4.22,10.42-7.79,10.53-15.36.03-2.23,1.19-4.45,1.82-6.68ZM478.04,196.45c-.37-1.11-1.33-.88-2.11-.94-7.77-.64-15.53-1.43-23.34-.84-2.02.15-3.66-.36-4.29-2.52-.23-.79-.9-1.13-1.38-1.66-7.05-7.87-15.16-14.69-22.07-22.7-2.63-3.05-3.25-2.9-4.73.82-3.86,9.71-6.67,19.83-11.12,29.3-1.33,2.83-.44,4.1,2.02,5.5,9.72,5.52,19.72,10.59,28.83,17.14,1.36.98,2.57,1.18,4.02.14,2.14-1.54,4.4-2.91,6.58-4.4,8.62-5.9,17.23-11.81,25.83-17.75.76-.52,1.61-1.04,1.77-2.1ZM375.36,402.58c.04,4.17.89,5.12,4.17,5.5,13.6,1.58,27.19,3.31,40.69,5.56,2.31.39,3.82-.25,5.19-2,4.07-5.23,8.14-10.46,12.37-15.56,1.59-1.91,1.86-3.61.64-5.72-2.16-3.74-4.98-7.06-6.83-11-.54-1.14-1.73-1.75-3.04-2.1-4.07-1.09-8.12-2.25-12.16-3.42-1.8-.52-3.46-.56-5.11.59-4.88,3.41-10.5,5.84-14.17,10.85-.57.77-1.49,1.08-2.45,1.34-1.21.33-2.5.68-3.51,1.38-4.42,3.05-8.73,6.27-13.13,9.35-2.03,1.42-2.86,3.3-2.67,5.24ZM297.14,437.56c-.23,5.89,0,11.27,5.06,15.79,5.24,4.67,9.53,10.4,14.3,15.61,1.4,1.53,3.03,2.8,5.18,1.04,4.4-3.6,8.42-7.6,12.35-11.7.76-.79,1.12-1.78,1.36-2.82.67-2.87,1.05-5.85,2.02-8.61,1.94-5.51,1.87-10.43-2.98-14.47-.39-.33-.62-.85-.95-1.26-3.64-4.5-7.2-9.08-10.98-13.47-1.69-1.97-4.06-3.12-6.79-2.52-5.14,1.14-10.26,2.38-15.38,3.63-2.69.66-3.99,2.24-3.88,5.24.16,4.53,1.19,9.01.68,13.54ZM323.5,302.25c-1.6-.05-1.4,1.26-1.09,2.91,1.28,6.73,3.41,13.3,3.89,20.17.52,7.39,3.31,12.78,10.25,16.72,7.93,4.49,15.01,10.48,22.41,15.89,2.25,1.64,3.27,1.07,3.93-1.48,2.4-9.3,5.65-18.33,9.1-27.29.73-1.9.36-3.29-1.26-4.39-4.11-2.79-7.77-6.13-11.59-9.29-2.9-2.4-5.54-5.57-9.16-6.62-8.5-2.47-17.17-4.33-26.49-6.61ZM296.37,412.46c0,1.64.13,3.65,2.42,2.97,6.48-1.94,13.23-2.58,19.7-4.49,1.45-.43,2.5-1.28,3.02-2.92,2.87-9.03,6.07-17.95,9.57-26.75,1.74-4.37,1.27-4.28-3.13-5.96-6.21-2.36-13.76-1.78-16.8-10.83-3.73-11.12-9.29-21.67-13.17-32.83-.32-.91-.45-2.49-1.75-2.29-1.44.22-1.2,1.75-1.16,2.87.18,4.84.5,9.68.56,14.53.13,11.26-.3,22.54.32,33.77.59,10.65.99,21.27.42,31.93ZM429.46,432.23c1.22.05,2.84.83,3.48-.58.63-1.39-.95-2.19-1.68-3.15-1.91-2.52-4.03-4.9-5.84-7.49-1.46-2.09-3.34-3.03-5.8-3.33-13.83-1.7-27.65-3.43-41.47-5.25-2.39-.31-4.04.31-5.35,2.36-3.19,4.97-6.32,9.98-10.23,14.46-2.22,2.55-1.87,3.78.89,6,2.47,1.99,4.91,4.02,6.87,6.53,3.19,4.07,6.35,8.16,9.44,12.3,2.03,2.72,2.92,3,4.88.89,5.66-6.09,11.26-12.24,16.9-18.35.9-.98,2.04-1.41,3.38-1.47,1.58-.07,3.15-.26,4.72-.46,6.6-.81,13.2-1.63,19.8-2.45ZM446.81,289.73c.86-.06,1.3-.01,1.7-.12,10.8-2.92,21.6-5.85,32.39-8.78,1.13-.31,1.87-1.04,2-2.2.89-7.66,2.43-15.22,3.94-22.77.42-2.08-.43-3.38-2.6-3.97-2.74-.75-5.43-1.7-8.11-2.66-5.63-2.03-11.11-4.61-17.42-3.48-1.85.33-3.1.84-3.91,2.62-.86,1.9-1.56,3.93-3.03,5.52-7.8,8.37-13.36,18.45-20.7,27.17-1.43,1.7-1.06,3.24,1.46,3.94,2.54.71,5.01,1.66,7.47,2.62,2.36.91,4.65,2.01,6.81,2.12ZM340.17,143.34c5.26-1.14,10.91-2.37,16.57-3.57,1.76-.37,2.14-1.67,2.61-3.17,2.51-8.07,2.34-16.72,5.47-24.68,1.3-3.31.72-3.83-2.84-4.64-8.6-1.97-17.58-2.48-25.6-6.74-1.49-.79-2.88-.41-4.14,1.1-2.77,3.3-5.84,6.35-8.7,9.57-4.86,5.48-10.38,10.62-9.99,18.91.05,1.01-.42,2.06-.72,3.07-.65,2.25.19,3.42,2.48,3.7,5.17.63,10.02,2.44,14.94,4.04,3.09,1.01,6.15,2.23,9.91,2.41ZM383.62,74.07c-5.23-1.22-9.17,2.04-12.88,5.89-1.24,1.29-2.62,2.46-4,3.59-4.58,3.74-9.22,7.4-13.77,11.17-1.25,1.04-3.19,2.01-2.69,3.94.48,1.87,2.61,1.47,4.08,1.79,3.92.84,7.88,1.54,11.83,2.26,3.31.6,6.47,1.85,8.65,4.32,3.18,3.61,7.05,6.26,10.76,9.19,2.24,1.78,3.74,1.94,5.94-.11,7.42-6.89,14.47-14.2,22.64-20.25,1.67-1.24,1.14-2.18.15-3.36-4.32-5.18-8.97-10.1-12.95-15.56-.65-.9-1.6-1.57-2.65-1.6-4.84-.18-9.49-2.31-15.09-1.26ZM315.1,59.34c.96-.27,1.87-.51,2.78-.78,10.93-3.21,21.53-7.39,32.33-10.99,1.17-.39,1.68-1.06,2.02-2.15,2.36-7.43,4.61-14.9,7.52-22.14.66-1.63-.1-2.68-1.5-2.79-7.87-.63-15.2-3.43-22.71-5.48-1.85-.51-3.64,0-5.05,1.19-2.5,2.1-5.01,4.23-7.26,6.58-7.51,7.85-14.9,15.81-22.34,23.73-2.65,2.82-2.42,4.17,1.07,6.02,3.81,2.02,7.97,3.41,11.4,6.15.46.37,1.16.45,1.75.66ZM498.09,157.21c-1-8.01-1.18-13.81-1.29-19.61-.03-1.84-.92-2.79-2.88-2.1-6.85,2.4-13.88,4.45-18.1,11.19-.81,1.3-2.2,2.26-3.38,3.3-1.38,1.22-2.29,2.67-3.03,4.36-4.68,10.72-9.42,21.42-14.2,32.09-1.43,3.2-1.23,3.57,2.2,3.74,8.42.42,16.88-.21,25.26,1.21,1.93.33,3.38-.57,4.17-2.59,1.31-3.34,3.09-6.51,4.19-9.91,2.57-7.87,8.35-14.87,7.06-21.69ZM439.71,331.7c-.64.21-1.73.58-2.84.91-6.25,1.89-12.13,4.99-18.65,5.97-3.42.51-6.36,2.18-9.54,3.25-2.23.75-2.85,2.15-1.9,4.41,2.57,6.14,4.39,12.54,5.96,18.99.63,2.57,1.99,3.91,4.4,4.25,3.58.5,7.02,1.46,10.39,2.71,1.67.62,3.18.42,4.86-.3,9.8-4.15,19.18-9.27,29.3-12.68,2.63-.89,2.79-2.2,1.02-4.1-2.51-2.7-5.04-5.38-7.49-8.13-4.19-4.71-8.34-9.47-12.49-14.22-.68-.77-1.5-1.12-3.02-1.05ZM423.26,481.54c-.51.13-1.02.29-1.53.39-6.5,1.31-12.99,2.7-19.51,3.9-11.38,2.09-22.79,4.08-34.19,6.08-1.27.22-2.03.91-2.72,1.93-4.73,6.97-9.49,13.93-14.28,20.85-1.27,1.83-.98,3.21.62,4.68,2.94,2.71,5.69,5.64,8.67,8.31,1.71,1.53,3.11,3.38,5.24,4.52,1.78.95,2.72.49,3.6-1,4.04-6.93,9.48-12.92,13.25-20.03.61-1.15,1.58-2.36,2.88-2.09,1.91.4,3.3-.49,4.75-1.23,6.31-3.2,12.72-6.15,19.21-8.95,2.28-.98,4.98-1.54,6.56-3.64,2.91-3.86,5.62-7.87,8.4-11.84.79-1.13.38-1.74-.94-1.88ZM342.49,96.47c2.15.22,3.29-.62,4.25-1.58,7.98-8,17.37-14.37,25.54-22.16,2.65-2.53,2.61-2.72.04-5.26-5.42-5.36-12.22-8.98-17.58-14.38-1.15-1.15-2.48-1.26-4.07-.73-9.5,3.16-19.05,6.17-28.54,9.36-2.24.75-3.56,2.23-2.06,4.86,4.68,8.24,9.18,16.58,13.97,24.76,1.94,3.32,5.75,4.01,8.47,5.14ZM325.22,504.14h-.1c0,1.49-.03,2.97,0,4.44.04,1.32.64,2.16,2.08,2.31,5.18.53,10.06,2.35,15.04,3.67,2.4.64,4.13.33,5.37-1.87,3.83-6.82,9.25-12.55,13.23-19.28,1.17-1.97,1.2-3.59-.39-5.1-8.05-7.63-15.02-16.24-22.46-24.43-1.43-1.57-2.79-1.62-4.39-.34-3.38,2.71-6.58,5.61-9.37,8.93-1.6,1.9-1.84,4.02-1.55,6.5.98,8.37,1.71,16.77,2.53,25.16ZM297.02,86.81c0,5.91.04,11.82,0,17.74-.08,9.47-1.52,7.76,8.31,11.7,4.45,1.78,7.81.82,10.46-3.11,3.52-5.22,8.28-9.27,12.38-13.94,1.76-2.01,2.26-3.92.89-6.29-4.89-8.5-9.76-17.02-14.61-25.55-1.08-1.91-2.64-3.27-4.51-4.32-3.12-1.77-6.26-3.51-9.39-5.25-.91-.51-1.88-1.36-2.9-.75-1.18.71-.79,2.11-.71,3.21.63,8.86.33,17.72.09,26.57ZM322.19,255.02c2.45-1.34,5.12-.09,7.4-1.79,5.65-4.21,10.88-8.99,17.05-12.5,1.82-1.03,2.04-2.47.81-4.24-1.14-1.65-2.1-3.41-3.1-5.15-5.29-9.24-10.56-18.5-15.88-27.73-.49-.85-.68-2.3-2.01-2.13-1.01.13-1.24,1.36-1.59,2.22-1.12,2.76-2.58,5.36-4.43,7.65-1.89,2.34-2.5,4.82-1.82,7.65,1.18,4.9.67,9.05-3.35,12.87-6,5.7-9.06,13.66-14.2,20.08-.57.71-1.44,1.49-.8,2.51.61.97,1.7.55,2.62.55,6.43,0,12.85,0,19.28,0ZM361.73,161.61c-.79-4.14-1.57-8.28-2.37-12.42-.84-4.34-2.03-5-6.35-3.64-1.21.38-2.45.76-3.7.87-5.23.43-8.51,3.6-11.38,7.6-4.79,6.69-10.07,13.02-14.76,19.79-3.01,4.35-3.53,6.45-.17,10.19,3.83,4.26,6.25,9.23,8.55,14.34,1.57,3.49,2.2,3.57,4.63.69.34-.4.62-.85.94-1.28,7.57-10.4,15.13-20.81,22.74-31.19,1.1-1.5,1.98-2.99,1.88-4.95ZM307.34,174.6s0,.06,0,.09c2.32,0,4.67-.23,6.95.07,2.01.27,3.36-.52,4.28-1.97,2.77-4.37,5.71-8.59,9.02-12.57,2.43-2.92,4.72-5.94,6.99-8.99,1.92-2.57,1.49-3.74-1.46-4.47-6.14-1.52-12.33-2.85-18.38-4.65-2.61-.77-6.13.94-7.78-2.09-1.49-2.75.09-5.8.45-8.67,1.1-8.92,1.19-8.9-7.74-11.35-.2-.06-.4-.12-.6-.2-1.56-.61-2.28,0-2.08,1.58.56,4.44-.56,8.91-.15,13.27,1.16,12.25-.23,24.44-.27,36.66,0,1.92.78,2.73,2.54,2.84,2.74.17,5.48.31,8.22.47ZM302.93,178.44s0,.08-.01.12c-1.26-.08-2.53-.15-3.79-.26-1.89-.15-2.75.68-2.66,2.59.29,5.78-.06,11.56-.12,17.33-.1,8.76.55,17.54.24,26.29-.26,7.17.69,14.34-.2,21.5-.14,1.09-.46,2.66.92,3.04,1.51.42,1.63-1.36,2.22-2.24,2.99-4.47,5.41-9.45,8.96-13.4,4.03-4.49,4.68-9.24,3.58-14.64-.8-3.93.36-7.17,2.71-10.28,2.73-3.61,5.18-7.44,7.81-11.14,1.24-1.74,1.31-3.26.15-5.2-2.04-3.43-4.51-6.63-5.91-10.44-.48-1.3-1.62-2.16-3.17-2.29-3.58-.29-7.15-.65-10.72-.98ZM480.32,388.25c1.58.1,2.67-.27,2.9-1.69.83-5.18,3.71-9.34,6.61-13.51,1.2-1.73,1.39-3.5,0-5.25-2.75-3.47-5.5-6.93-8.23-10.41-1.42-1.81-3.1-2-5.01-.88-.82.48-1.6,1.04-2.45,1.45-11.57,5.61-23.35,10.75-35.23,15.67-4.4,1.82-4.52,1.67-2.03,5.87,1.45,2.45,3.03,4.82,4.38,7.33,1.88,3.5,2.53,3.97,5.8,1.79,5.81-3.88,11.85-4.92,18.63-3.14,4.88,1.28,9.93,1.91,14.63,2.77ZM296.42,501.55c0,3.89.09,7.79-.03,11.67-.1,3.53.98,4.55,4.33,3.33,5.09-1.85,10.43-2.6,15.65-3.85,4.14-1,4.86-1.49,4.37-5.73-1.06-9.23-1.25-18.52-1.97-27.78-.14-1.75-.63-3.34-1.85-4.6-5.69-5.91-11.39-11.81-17.13-17.68-.56-.57-1.18-1.51-2.09-1.16-1.1.42-.81,1.57-.75,2.51.85,14.44-.01,28.87-.55,43.31Z"/>
    </g>
  </g>
  <g id="Layer_1">
    <path class="cls-1" d="M245.22,22.67l-1.43,17.71c-.14,2-.51,11.29-1.48,13.03l-8.33,13.92-2.54,4.79c-.69,1-.37,2.39.7,2.98l15.94,8.81c3.3,1.53,5-.23,8-2.29l13.05-8.86c2.98-2.04,4.23-3.35,4.02-6.95l.02-18.16c0-1.95-.85-3.81-2.33-5.08l-22.75-20.64c-.79-.68-2.76-.3-2.86.74Z"/>
  </g>
  <g id="Layer_2">
    <path class="cls-1" d="M204.05,24.49c-4.93.72-9.3,3.56-12.61,7.28l-6.26,7.04-4.54,4.62c-1.46,1.85-3.04,4.05,3.2,13l8.54,18.49c.76,1.67,2.03,2.71,3.83,2.39l30.6-5.39,11.31-20.28,3.06-32.51-2.09-.91c6.7-1.3-12.4,2.96-35.04,6.26Z"/>
  </g>
  <g id="Layer_3">
    <path class="cls-1" d="M144.91,55.22c.68-.74,1.56-1.26,2.54-1.49l23.41-5.33c.86-.2,4.06-.32,4.42.49l12.79,29.12c.56,1.23-.6,2.33-2.13,2l-16.29-2.16c-3.41-.36-2.76,1.09-3.12,4.5l-2.19,18.61c-.08.49-.12,1.97-.86,2.22-1.23.41-3.15-.84-4.32-1.4l-4.75-2.28c-.14-.07-1.7-.6-1.85-.65-1.53-.57-10.28-4.16-10.48-4.57l-2.24-4.62c-.24-.5-4.79-9.9-6.95-15.14-.76-1.84-1.79-2.68-.38-4.1l.22-.26c-.6.23,3.11-3.79,3.31-4.02,8.63-10.43,6.17-7.96,8.85-10.9Z"/>
  </g>
  <g id="Layer_4">
    <path class="cls-1" d="M125.53,75.76c-6.24,4.68-12.79,8.45-20.02,12.7-1.71,1.62-2.86,4.97-2.33,9.87l1.33,35.49c-.12,3.55,1.59,4.44,4.76,3.37,13.06-2.76,34.01-8.53,33.59-9.21,3.16-.74,5.17-2.04,6.03-3.87l9.02-11.87c4.1-3.42,2.6-7.51-2.97-6.97l-2.68.17-3.17-1.84c-.71-.8-2.1-1.6-4-2.41l-2.24-.44-1.76-1.05-1.95-1.81-1.92-2.98-10.35-19.62-1.02.48h-.32Z"/>
  </g>
  <g id="Layer_5">
    <path class="cls-1" d="M154.18,125.65s-1.5,2.2-1.48,2.21c-.38,0-.38,1.52,0,1.52-.06.14,1.8.93,1.86.79l7.14,1.57,9.17,2.31,13.36,3.88s1.1.14,1.79-.35c.68-.35.94-.78.9-.87l1.19-3.36,6.67-13.83,1.1-3.17.12-2.74-2.48-13.57-2.35-13.09c-.12-.97-.65-2.11-1.55-2.29,0-.09-1.89-.35-1.8-.27l-13.83-1.37c-3.43.19-2.94.14-4.3,1.83l-1.13,12.44s-1.05,2.83-1.05,4.32c0,.89.14-.71-.13.23s1.29,3.92,1.29,3.92h0"/>
  </g>
  <g id="Layer_6">
    <path class="cls-1" d="M196.56,85.94c.05,0,2.48,13.85,2.43,13.86l.36,4.88c-.22,3.12.48,4.79,1.76,5.07-.03.19,3.27.64,3.29.44l8.75.68c3.52.45,6.84.76,9.84.86h7.37c1.18-.06,3.52-2.11,3.17-2.54l5.41-8.87c.14.08,5.85-9.54,5.71-9.62.64-1.45-.15-2.58-.76-2.38.07-.12-4.98-2.89-5.05-2.76l-12.45-8.18c-.26-.29-4.33-.6-3.36-.41l-20.74,4.95-3.93.86c-1.83,1.02-1.51,1.73-1.68,1.9"/>
  </g>
  <g id="Layer_7">
    <path class="cls-1" d="M273.17,75.82l-1.89.89-2.71,1.7-5.48,4.1-5.38,2.57-3.62,2.43-5.14,5.52-7.76,11.67-3.67,7.03c-.25,0-.25,2.73,0,2.73l1.29,1.38,21.43,15.29,1.1.86h1.43l1.05-.9,1-1.63,1.62-3.19,3.9-6.29,2.33-5.1,1.48-7.05v-4.86l-.67-7.33-.05-5.33.07-1.52.25-5.15s.71-4.69.71-5.51-.47-2.7-1.28-2.32Z"/>
  </g>
  <g id="Layer_8">
    <path class="cls-1" d="M181.33,141.94c1.14.24,2.95,1.14,3.71,2.19l4.24,6.33s13,17.1,13,17.67,1.57,1.76-2.43,3.33l-15.29,6.62c-1.52.68-2.84,1.32-5.24.33l-21.1-7.71c-.9-.95-1.48-.14-2.1-3.24,0-.01-4.51-29.84-4.52-29.84-.27-1.01-.13-2.64,1.1-2.3.05-.23,28.67,6.39,28.62,6.62Z"/>
  </g>
  <g id="Layer_9">
    <path class="cls-1" d="M191.07,144.17s.21.47.62,1.08c2.86,4.23,13.91,20.19,14.79,20.44s1.43-.24,1.43-.24c0,0-.12.21,1.31-1.35l6.22-8.89,6.48-11.27s3.7-3.2,3.87-2.95l21.86-4.83,7.6-1.14c.94.17,1.33-1.99.38-2.16.05-.08-9.09-5.86-9.14-5.78l-6.35-3.87c.06-.06-6.01-5.46-6.06-5.4.1-.12-1.17-1.13-1.27-1.02.07-.29-2.92-.96-2.98-.67l-9.75-.6-6.32-.25h-1.24l-7.9-.32c-2.03-.54-3.68.89-4.32,1.9l-3.08,8.13-4.19,8.35-2.41,5.65c-.07,0-.46,1.91-.33,3.23.11,1.14.73,1.95.79,1.95Z"/>
  </g>
  <g id="Layer_10">
    <path class="cls-1" d="M224.47,148.65c.07.05-10.82,17.17-10.89,17.12-1.14,1.18-.6,2.67.76,2.78l8.65,1.86,17.19,3.57,5.71,1.1c.43.24,3.7-1.17,3.57-1.48l21.1-13.95c2.14-1.1,3.28-3.6,3.38-4.86.12,0,.63-22.04.51-22.05.17,0,.37-7.52.21-7.52.02-1.38-1.78-1.68-2-.33l-4.95,8.33-1.62,3.81c-.87,1.35-2.48,2.81-5.1,2.67l-2.76-.24c-.05-.24-9.14,1.47-9.1,1.71-.07-.29-10.31,2.14-10.24,2.43-.07-.23-13.36,3.87-13.29,4.1.02.02-1.13.97-1.14.95Z"/>
  </g>
  <g id="Layer_11">
    <path class="cls-1" d="M94.45,108.52l-2.61,5.94c-.16-.07-2.04,4.98-1.88,5.04,0-1.14-12.07,29.8-12.15,29.77l-7.73,16.66c-.36.85-.78,1.89-1.17,3.03-.69,2.01-1.28,4.34-1.32,6.48l-1.18,7.49c-.69.36-.17,2.88.88,2.45-.01.1,1.54.26,1.55.17l7.29-.62,11.19-1.43,3.82-.81c6.33-2.62,5.07-3.27,5.53-3.58,1.72-1.18,5.71-4.1,5.65-4.18l7.05-5.76c.88-.65,1.66-1.4,1.48-1.57,1.48-1.05,1.31-3.29.86-3.86l-2.81-4.86-4.38-9.48-2.86-4.29c-.19.06-.76-2.26-.57-2.32-.43.03-.84-4.63-.67-6.97.39-.01.11-9.49-.29-9.48l-.81-10.57-.24-7.27-.1-4.06c.73-1.62-1.61-2.67-2.33-1.05l-2.21,5.11Z"/>
  </g>
  <g id="Layer_12">
    <path class="cls-1" d="M117.47,165.77l-10.48-21.98c-.59-.62.86-2.52,2.24-2.14l8.48-2.19,24.81-6.14c1.62-.76,4.29.29,4,1.24l.33,1.38.48,5.81,1.14,8.81,1.9,11.05,1.12,6.71c.16,1.9-.69,4.1-2.26,5.38l-12.19,11.14-8.05,7.62-2.62,2.81c-.48,1.09-3.52,1.48-4.71.76l-7.9-1.81-6.48-.81c-1.86-.24-3.85-3.05-3.81-3.24l-4.52-4.81c-.52-.9.24-3.05,1.24-3.24l17.29-16.36Z"/>
  </g>
  <g id="Layer_13">
    <path class="cls-1" d="M61.98,193.13l-13.84,21.62c-2.73,3.02-3.49,4.6-2.44,7.81,0,0,.7,3.97,1.24,5.94l1.71,9.21c-.1.01,2.7,18.78,2.79,18.76.13,1.56,1.63,2.85,2.17,2.35l2.27-.67,6.25-2.32,8.25-2.92,3.4-.83c1.4-.7,2.36-2.09,1.97-2.41.07-.2,1.1-6.87.95-6.89l1.9-10.89,1.08-6.19.76-6.51.54-4.63c.03-.48,1.37-3.37,1.17-2.6.13.11,2.03-2.57,1.81-2.22l2.03-1.02c1.08-.77,2.2-1.96,1.84-2.25l3.65-3.9,6.67-6.32c1.08-1.05,1.11-2.63.19-2.7l-2.92-3.14-2.06-1.62c.19-.6-3.14-1.08-2.89-.76l-6.79.54-8.95.79-7.37.6c-2.83-.06-4.79,1.75-5.4,3.17Z"/>
  </g>
  <g id="Layer_14">
    <path class="cls-1" d="M85.09,223.41l-3.78,21.81-.79,5.62c-.38,1.17.16,2.54,1.33,3.52l3.71,4.38,5.05,6.32,6.79,9.27,1.46,2.32c.38.7,2.79,1.42,2.95.79l7.11-2.38,10.7-3.49c1.84-.7,2.23-1.56,2.41-2.86v-12.32l-.22-9.37c-.35.1-.56-2.23-.79-2.1-.33.2-3.92-5.67-3.59-5.87l-4.7-9.62-3.65-5.78c.26-.25-3.62-4.13-2.98-3.11.05-.16-3.29-1.14-3.33-.98l-6.76-1.52-4.92-.95-2.8-.51c-1.81.06-1.78-.16-2.5.7l-.35,1.3c-.13,0-.48,4.82-.35,4.83Z"/>
  </g>
  <g id="Layer_15">
    <path class="cls-1" d="M50.68,273.25c-.16-.03-2.7,14.45-2.54,14.48-1.22,6.46-.69,7.76.63,8.67-.08.08,2.26,2.28,2.35,2.19l16.1,15.37,6.06,5.24c1.52,1.71,4.06,2.13,4.76.16l3.78-9.97,1.11-4.03.44-3.52c.03-1.24,1.42-5.36,1.81-6,.32-1.08,3.59-6.06,3.17-5.4l3.75-4.25,2.32-2.03c1.59-1.68,1.68-3.81.95-4.03.2-.13-5.13-8.35-5.33-8.22l-6.38-7.94s-3.72-4.7-3.65-4.83c-1.33-2.57-3.43-3.65-4.86-2.83l-4.22,1.08-3.11.98-4.38,1.65-6.29,2.35-3.33,1.14c-1.3.35-2.48,1.81-2.48,3.24"/>
  </g>
  <g id="Layer_16">
    <path class="cls-1" d="M100.52,283.41l-7.43,10.29-3.24,6.86-2.19,6.38-1.81,4.86-2.16,5.84c-1.08,1.94-.47,3.37,1.3,3.62l8.19.92,10,1.33,15.81,2.19,9.05,1.05c1.52.16,2.06-.92,2.16-2.86l-.92-9.05-1.52-11.62-.67-9.52c.41.79-3.11-9.71-2.95-8.86,0,0-.41-3.14-.41-3.14.09,0,.02-3.27-.06-3.27-.02-.75-.76-1.94-2.25-1.52l-6,.92s-8.33,2.78-8.32,2.83c-.07-.17-6.64,2.59-6.57,2.76Z"/>
  </g>
  <g id="Layer_17">
    <path class="cls-1" d="M150.43,333.19l-2.25,11.79-1.14,7.52-.38,1.62c-.42,1.57-2.24,1.62-2.95.67-.19.15-7.52-9.14-7.33-9.29-.08.07-4.89-5.02-4.81-5.1-.1.08-1.67-2.02-1.57-2.1-.43-1.29-.48-1.76,1.06-3.14,1.56-.7,3.98-2.16,3.84-2.38.05.05,1.57-1.52,1.52-1.57.55,0,.5-3.48-.05-3.48-.67-.76-2.38-3.9-1.95-5.29l-1.43-17.1-1.81-13.95c-.46-1.71.05-3.35,2.05-3.07.05-.35,6.52.48,6.48.83l4.62,1.05,3.76.71,3.71.48,6,.52c2.95.05,4.14.52,3.43,2.71.09.03-6.01,16.08-6.1,16.05l-2.19,6.29c-.33-.05-1.47,8.1-1.14,8.14.01,0-1.46,8.05-1.48,8.05"/>
  </g>
  <g id="Layer_18">
    <path class="cls-1" d="M136.45,280.24l18.48-16.06s13.67-12.17,13.65-12.19c3.11-3.05,3.94-5.67,7.37-4.1.12-.21,12.56,7.12,12.44,7.33,1.78,1.08,3.05,3.47,3.97,5.68l2.7,6.45,2.41,5.21c.57,1.27.89,2.54-1.78,3.43l-12.32,4.89-17.02,6.2-4.13.84c.04-.24-15.96-2.72-16-2.48l-8.48-1.14c-2.86.7-4.16-1.9-1.3-4.06Z"/>
  </g>
  <g id="Layer_19">
    <path class="cls-1" d="M131.8,279.94c.29-.19,15.29-15.1,15.29-15.1l17.14-15.52,4.86-4.48,3.43-6.1,3.25-4.56c.86-1.19-.59-2.49-2.11-2.21l-11.9,1.05-8.67.19c-.48.14-5.59,1.3-5.48,1.67l-7.67,3.29-5.09,2-3,.81c-3.24.24-5.1,2.71-4.33,2.05-.59-.08-.97,3.76-.76,5.67l-.24,8.81-.1,4.43-.29,4.43.29,5c.05,5.45,2.62,11.29,5.38,8.57Z"/>
  </g>
  <g id="Layer_20">
    <path class="cls-1" d="M183.37,185.94c-.57-.94.98-2.78,1.9-2.9l9.86-4.11,11-4.94c.57-.71,4.67-1.71,5.9-1.1l13.19,3.19,15.14,2.84,1.95.92c1.51.43,2.05,1.33,1.81,2.81l-.95,16.13.16,5.37c.25.73-1.24,1.9-2.38,1.21l-8.41-2.6-8.22-2.76c-.95-.41-3.16.2-3.84.63l-2.89,1.81-3.49,2.06-4.73,2.25-6.19,2.92-5.46,2.54-2.54,1.3c-1.08.35-1.87-.48-2.16-1.49l-9.05-24.35c-.11.04-.71-1.69-.6-1.73Z"/>
  </g>
  <g id="Layer_21">
    <path class="cls-1" d="M130.04,197.57c1.26-.81,2.35-1.18,3.17,0l1.64,3.37,2.81,6.98,4.51,9.08,4.89,9.9c1.02,1.84-.06,3.56-1.59,3.87l-2.22.89-8.39,3.05-9.19,4.06c-.51.83-3.11.76-3.37-.63l-3.49-6.54-4.32-8.7-3.56-6.32-2.48-1.62c.08-.3-2.31-.84-4.13-1.08-.9-.32-5.57-.85-7.69-1.01h-3.93c-1.69.12-2.67-1.21-1.33-3.12l9.33-10.1c1.4-1.4,4.06-2.29,5.21-1.59-.06.24,8.51,1.97,8.51,1.97.01-.07,9.98,1.54,9.97,1.61,2.22.87,3.44-1.08,3.87-2.12l1.78-1.97Z"/>
  </g>
  <g id="Layer_22">
    <path class="cls-1" d="M136.52,194.36l13.62,29.62c.48,2.48,2.76,4.49,5.62,4.1l11.33-.38,9.95-.29c2.91-.48,4.37-3.78,5.67-6.67l4.48-6.1c1.17.13-.51-8.35-1.27-8.71l-4.44-11.24-2.62-8.14c-.14-2.19-1.81-4-3.14-4.1-.33.05-4.64-1.38-4.64-1.38l-6-2.48-5.26-2.17-3.31-1.02c-.74-.5-2.43-.16-3.21.93l-5.4,5.43-5.55,4.74-4.05,3.4c-2.01,1.45-2.6,3.05-1.76,4.45Z"/>
  </g>
  <g id="Layer_23">
    <path class="cls-1" d="M187.82,224.27c.14-.6,1.59-3.37,1.9-2.95l7.11-3.56c.14.3,23.4-10.8,23.26-11.1l1.63-.96c.79-.51,3.65-.57,4.13,0,.29-.25,3.53,1.18,3.49,1.27l4.92,1.62,2.35.54c1.14.06,1.43,1.21,1.21,1.56.25.2-.7,1.4-1.27,1.62l-5.43,3.75-3.27,2.86-4.76,3.94-3.11,2.22-1.84,1.3s-1.22,1.31-1.52,1.76c-.32.65-1.02,2.39-1.05,2.9l-.06,2.32s-.71,3.38-.63,3.4l-1.33,2.1c.32.49-3.4,2.86-4.6,2.98l-3.81,1.59-2.83,1.37-3.4,1.81-3.3,1.27-3.4.63c0,.34-1.84.34-1.84,0,.1.38-4.63-1.33-4.54-1.59-.12.2-7.42-4.31-7.3-4.51-1.05-.6-.66-1.7-.16-2.54.25.41,9.56-14.67,9.46-15.59Z"/>
  </g>
  <g id="Layer_24">
    <path class="cls-1" d="M274.32,168.6c0,3.99-.35,17.16-.53,19.43-.03.44-.05.87-.05,1.31v43.12c0,1.54-2.26,2.05-2.65,1.05l-9.81-10.95-7.52-8.41c-.58-.64-1.2-1.23-1.86-1.79-1.37-1.16-5.05-6.7-4.52-7.07l1.52-23.79c-.57-.47,3.15-4.95,3.71-4.48l10.57-7.05,7.81-5.67c1.92-1.43,4-.62,3.49,1.85-.16.8-.17,1.62-.17,2.43Z"/>
  </g>
  <g id="Layer_25">
    <path class="cls-1" d="M241.34,214.2l-12.95,10.74s-.09.07-.13.1l-5.34,3.8c-.2.14-.38.31-.53.51-2.73,3.83-4.5,13.24-2.86,13.58-.77.52,2.63,4.56,4.1,5.65.19.14.35.32.49.51l1.23,1.79c.04.05.07.1.11.15l2.08,2.55c.27.33.63.55,1.02.71-.72.08,2.23.8,4.27,1.08l9.78,1.87,6.08,1.12c.3.06.61.05.91-.02l2.4-.53c.11.14,2.24-1.23,2.14-1.37.12.14,16.09-13.73,15.97-13.87,1.55-1.29,1.55-2.64.5-3.71l-5.02-5.14-4.93-5.07-5.02-5.14-4.05-4.4-2.93-3.4-2.24-2.64c-1.07-.98-2.23-.9-3.24-.24"/>
  </g>
  <g id="Layer_26">
    <path class="cls-1" d="M270.66,247.65c-.08-.09-15.17,13.29-15.1,13.38-.3-.16-4.39,7.65-4.1,7.81l-3.81,10.6c-.31-.07-1.86,6.6-1.56,6.67-.31.01.04,8.17.35,8.16l.38,7.08v5.56c-.44,1.97.32,3.49,2.25,2.76l12.92-4.95,7.84-2.83c2.7-1.49,3.43-2.98,3.66-5.3l.02-11.17v-12.19s-.56-10.7-.56-10.7l.06-9.81.03-3.71c-.35-1.56-1.06-1.54-2.39-1.35Z"/>
  </g>
  <g id="Layer_27">
    <path class="cls-1" d="M201.28,328.08c1.05-.2,6.34-4.36,5.33-4.1.1.01.86-6.56.76-6.57l1.62-14.75-.38-2.2c.49-.18-6.06-18.1-6.95-18.57-1.08-2-2.63-1.78-6.57-.48-.1-.28-15.63,5.38-15.52,5.66-.13-.33-9.46,3.25-9.33,3.57-1.52-.19-4.26,4.06-4.57,5.71l-3.86,11.29c-.37.72-2.39,5.75-2.24,5.81-.76-.57.62,3.62,1.87,4.24l10.23,8.38,9.71,8.1,4.24,3.88c1.43,1.07,5.62-.6,6.57-2.64"/>
  </g>
  <g id="Layer_28">
    <path class="cls-1" d="M212.28,280l24.16,6.6c1,.33,4.16,1.27,3.49,1.17,1.14,0,1.86,1.32,1.73,2.62l.16,4.37.03,5.54c-.23.03.21,4.24.49,5.07l.1.4.2,2.9c0,.07,0,.15,0,.22l-.18,3.84c0,.12-.02.23-.05.34l-1.07,4.62c.14.06-3.77,8.78-4.52,10.14l-.38.74-3.96,8.36-3.05,7.24-.73,1.87c-.6,1.54-2.19,2.06-3.02.92-.15.08-3.97-6.83-4.38-7.9l-.15-.32-5.28-8.04-3.3-5.05c-.53,0-1.1-3.58-1.23-4.94,0-.08,0-.15,0-.23l-.13-3.44.29-3.65.8-15.17c.01-.26-.02-.52-.11-.76l-5.23-14.39c-.06-.17-.15-.33-.26-.48-1.67-2.21-.21-3.92,1.3-3.79l4.29,1.17Z"/>
  </g>
  <g id="Layer_29">
    <path class="cls-1" d="M274.29,352.24c-.27,0,.05-9.35.32-9.34l.19-9.9-.19-12.19.24-3.75.33-4.95c.38-2.94-1.08-6.28-2.38-5.75-.59-.48-3.68.58-3.62.86l-8.03,3.05-11.56,4.38c-1.98.43-4.51,3.38-4.51,4.57l-2.92,6.54-3.11,8.44-2.71,7.32-2.62,6.06-.97,1.97c-.52,1.57.41,2.51,2.29,2.35,0,.3,7.01.13,7-.17l11.32-.71s2.19.47,2.21.4c.09-.22,2.6,1.02,2.6,1.02l4.89,4,7.87,5.71,1.52,1.46c1.71.95,2.73-.48,2.77-2.13-.33.03-1.19-9.2-.86-9.23"/>
  </g>
  <g id="Layer_30">
    <path class="cls-1" d="M245.37,423.41c-1.61.74-3.6.62-4-.86l-1.64-3.82c-.09-.21-.17-.42-.24-.64l-3.52-11.2-2.68-8.31c-.11-.36-.25-.71-.43-1.03-.53-.96-1.97-4.99-1.76-5.05-.75-.97.77-4.15,3.28-6.61.31-.31.61-.63.86-.99l14.86-20.94,3.71-4.97c.4-1.13,2.78-1.43,3.21-.76l6.67,4.76s5.71,4,6,4.1,2.57,1.43,2.57,1.43c1.3,1.02,2.18,2.66,1.91,4.85-.05.39-.1.78-.09,1.17l.14,15.03v18.76c.17,1.81-1.99,4.06-3.48,4.67l-8.48,3.62-16.89,6.8Z"/>
  </g>
  <g id="Layer_31">
    <path class="cls-1" d="M158.36,363.52c-.89.41-9.03-2.45-6.73-2.35-2.83-.29-1.25-5.05-.87-7.39l5.06-26.31c-.12-.02.91-5.65,1.03-5.63.24-.86,2.5-.51,3.29.55l18.79,15.37c1.93.81,7.25,6.05,6.98,6.35l1.58,6.17,4.01,21.25c.36-.07,1.31,6.26,1.27,6.98.32.65.28,5.75,0,4.7.57.11-.16,1.67-.51,2.54l-5.84,10.41-6.22,14.73-2.16,4.57c-.76,2.16-3.63,2.24-3.63.21.27-.05-2.13-11.37-2.13-11.37-.28.05-5.9-25.47-5.62-25.52l-2.41-10.16c-1.09-2.06-3.92-4.84-5.89-5.1Z"/>
  </g>
  <g id="Layer_32">
    <path class="cls-1" d="M196.26,252.87c-1.37.63-1.29,2.3-.57,3.41l3.75,8.14,2.92,6.86c.7,1.33,3.75,3.1,4.95,3.05l13.46,3.3,14.22,4,3.94,1.08c1.44.56,3.3-.83,3.3-2.09l2.48-6.67,3.17-8.19c.83-1.35-.08-3.16-1.73-2.88.27.3-3.77.02-5.01-.42,0,0-4.38-1.2-5.38-1.67.04-.25-2.79-.74-3.45-.5-.36.31-3.9.17-4.24-.24-.86.05-3.62-2.12-3.79-2.6l-3.02-3.62-2.6-3.24-1.95-2.48c-.1-.43-2.1-2.19-2.6-2.17-.24-.17-1.88-.29-2.67,0l-3.07,1.71s-4,2.09-4.02,2.05l-3.9,1.67-4.18,1.48Z"/>
  </g>
  <g id="Layer_33">
    <path class="cls-1" d="M247.5,356.43c1.68-.29,2.94,1.41,1.65,2.33l-9.52,12.28-8.65,13.08c-1.46,2.02-3.79,4.06-6.68,2.67l-10.95-3.56-13.08-3.17c-1.16.96-4.72-3.36-3.56-4.32l-3.71-18.79-2.51-11.94c-.7-1.9.25-4.32,2.51-4.7l12.96-10.03c1.87-2,4.02-2.22,4.6-.63-.05.03,12.97,20.98,13.02,20.95.73,1.14,1.64,4.41,1.3,4.51l.63.79c-.06.17,2.32.79,2.32.79l19.68-.25Z"/>
  </g>
  <g id="Layer_34">
    <path class="cls-1" d="M124.71,335.22c2.38-1.52,2.19-2.86,1.43-4.1l-1.62-.29-10.1-1.14-8.67-1.05-8.29-.95-6.86-1.33-5.9-.48-4.31-.29-3.4-.1-4.19-.57-2.38-1.62-2.57-3.33c.22-.24-6.92-6.91-7.14-6.67,0,0-7.71-7.33-7.71-7.33-1.22-2.44-3.89-1.1-2.67,1.33l4.38,11.52,1.24,5.23.29,3.91c-.67,2,1.72,10.33,2.86,10l8.86,9.33,5.05,5.52c1.52,2.08,5.05,2.19,7.4.76l14.69-5.9,9.62-3.81,8.19-3.24c5.17-1.96,7.44-2.93,11.81-5.43Z"/>
  </g>
  <g id="Layer_35">
    <path class="cls-1" d="M98.69,374.27c-2.88,2.67-8.99,5.43-9.41,4.57l-4.19-7.43-5.52-8.76c-1.46-2.15-1.52-4.44,3.69-5.84.84-.22,1.66-.5,2.46-.84l33.66-14.09c2.67-1.52,7.27-2.03,7.27,0l8.21,8.76,8.14,9.12c1.36.77.28,4.39-.66,5.77-.72,1.06-1.43,2.14-1.98,3.3l-4.79,10.16c-1.33,3.11-3.17,5.59-5.36,3.57-.38-.35-.79-.02-1.23-.31.76-1.52.76,1.43-6.94-4.76-4.76-4.1-11.52-8.76-14.48-8.76"/>
  </g>
  <g id="Layer_36">
    <path class="cls-1" d="M104.71,374.84c-.12-.17-12.57,8.46-12.57,8.46-1.05,2.78-.47,7.2,0,8.3l.86,13.05s-.48,3.43,2.38,8.42l4.86,10.63,2.29,5.81c.95,1.52,2.1.56,3.43-.57l12.48-9.71c2.38-1.52,5.24-6,5.43-8.38l3.62-11.62,2.27-7.24c.44-3.33.59-3.81-1.88-5.71l-9.05-6.19-7.63-5.24c-1.32-1.9-5.23-1.9-6.46,0Z"/>
  </g>
  <g id="Layer_37">
    <path class="cls-1" d="M145.33,368.74c-.2-.11-9.59,17.99-9.38,18.1-.5-.16-4.5,12.51-4,12.67l-3.33,12c-.56,1.71-1.24,4.19.67,6.48l6.29,7.33,3.33,4.29c1.94,1.68,4.1,1.16,6.69,0l12.74-3.71,10-2.76c2.6-.1,3.86-3.59,2.48-6.08l-3.33-16.21-4.57-19.43-2.38-10.29c.1-1.52-12-5.76-11.9-4.86-.1-.62-3.29.95-3.29,2.48Z"/>
  </g>
  <g id="Layer_38">
    <path class="cls-1" d="M166.1,428.81c4.44-1.71,6.6-1.4,5.97,1.49l-.59,4.36-2.21,26.16c.38,1.77.38,4.41-.85,7.27-1.26,1.85-4.33,4.09-6.89,5.05-3.05,3.11-5.14,4.83-11.82,3.94l-16.12-6.6c-4.95-1.4-11.81-3.68-13.21-6.98l-4.19-8.63-8.13-14.1c-1.52-1.65-3.11-4.19-1.78-6.22-.16-.19,13.18-10.92,13.33-10.72,2.98-2.99,3.49-3.82,6.25-1.82.83.73,1.81,1.25,3.28,2.89,3.05,3.39,4.25,6.29,4.88,6.73l3.11,3.81c1.78,1.52,2.97,1.25,4.44.63l24.51-7.24Z"/>
  </g>
  <g id="Layer_39">
    <path class="cls-1" d="M235.18,417.33c.24.6,3.24,9.41,1.71,10.13-1.59,1.63-2.86,2.67-8.38,6.43l-13.46,11.04c-2.84,2.42-6.15,4.92-9.1,3.34l-6.39-5.71-7.81-6.86-8.76-7.43c-2.71-1.76-4.02-1.52-4-5.33l3.43-8,10.57-20,3.16-8.59c1.44-2.37,4.13-2.57,7.62-.57l11.11,2.98,9.86,2.59c2.59,1.38,2.8,4.37,3.8,8.13.76.67,6.86,17.76,6.64,17.85Z"/>
  </g>
  <g id="Layer_40">
    <path class="cls-1" d="M180.99,432.94c-2.97-2.32-2.86-2.64-4.29-1.52l-.32,4.25-3.3,33.27c-.55.5,15.83,18.41,16.38,17.9.67,1.24,7.52-.88,10.29-2.29l19.05-5.71c4.48-1.54,5.31-3.69,5.46-5.59l3.97-11.86c1.57-1.53-.48-3.99-3.52-3.61.02-.17-11-1.44-11.02-1.27.05-.17-1.87-.52-1.92-.35-.03-.36-3.63-.08-3.6.29.63.03-1.65.25-2.99-1.52.62-.49-1.05-3.05-4.59-5.83.06-.07-13.73-11.96-13.79-11.89l-5.81-4.29Z"/>
  </g>
  <g id="Layer_41">
    <path class="cls-1" d="M246.71,455.79c.09.09-15.08,14.97-15.71,15.42-.01,0-.03,0-.05,0-1.77-.02-1.6-2.1-.17-4.61,0,0,0-.01,0-.02l2.2-7.18s0,0,0,0l.57-3.02s0-.03,0-.04l-.34-1.03c.16-.33-1.02-.7-1.65-.86l-9.62-1.52-7.14-1.33c-.96-.35-.95-1.49,1.26-3.44l17.5-13.23s0,0,0,0l10.94-6.95s0,0,0,0c.17-.07,13.14-5.43,13.52-5.52s13.33-6,13.33-6c2.37-.57,2.37.57,2.4,3.7,0,.02-.03.03-.03.05l-.65,8.34s0,0,0,.01l.65,9.39s.01.03.02.04c.34.46.77,12.65.77,12.65.13,1.48.32,9.79-.24,10.69.05.14-.55.31-1.12.39"/>
  </g>
  <g id="Layer_42">
    <path class="cls-1" d="M235.42,501.74c1.12,1.89,1.28,3,.01,4.5l-9.4,8.03c.4.47-15.6,14.31-16,13.83-2.69,1.88-3.64,2.36-4.57-1.45l-11.33-31.05c-1.56-3.05-.81-4.25,1.52-5.24,0-.02,25.55-8.31,25.56-8.29,1.21-1.02,3.79-.37,3.62.63"/>
  </g>
  <g id="Layer_43">
    <path class="cls-1" d="M270.52,514.27c2.73.57,4.38,1.14,4.84,3.52.72.04.18,12.13.04,13.46-.44,3.97-.38,5.62-1.67,8.07.41.39-4.48,5.31-6.56,6.95-2.92,4.19-11.05,8-18.38,7.05-2.63.7-11.74.33-20.67,0-3.81,1.02-6.35.76-9.14-2l-8.11-12.94c-1.48-1.71-2.92-4.01,1.44-7.35l14.38-12.1c-.15-.17,10.1-9.59,10.38-9.33,1.59-1.87,3.33-2.32,5.52-2l27.91,6.67Z"/>
  </g>
  <g id="Layer_44">
    <path class="cls-1" d="M269.22,465.25c3.68.44,5.25,2.11,5.68,4.32l.83,37.32c-.45,3-1.4,3.81-3.64,3.32l-29.17-6.77c-1.15-.21-3.45-1.84-4.43-4.16l-8.25-16.76c-2-2.25-2.57-4.63.68-6.1-.02-.02,14.96-13.95,14.98-13.92,1.14-1.52,4.57-2.33,5.71-2.1,1.62-.04,5.02,1.09,5.67,1.48,9.24,2.81,13.86,3.57,11.94,3.37Z"/>
  </g>
  <g id="Layer_45">
    <path class="cls-1" d="M156.42,504.94l42.57,24.1c1.93,1.14,3.9.62,2.57-1.9l-6.38-16.48-5.9-16.67-11.52-13.14c.37-.4-7.54-7.64-7.9-7.24l-1.81.38-4.38,3.31-3.33,1.83c-.28-.32-3.33,2.19-3.9,3.43l-.67,1.9-.48,1.81-.62,4.62-.05,2.9-.76,7.05c-.13,2.48,1.9,3.52,2.57,4.1Z"/>
  </g>
  <g id="Layer_46">
    <path class="cls-1" d="M315.99,59.28l8.24-2.49,11.09-3.96s13.79-4.5,15.26-5.35c1.26-.3,1.52-.92,2.02-2.89l4.59-13.71,2.58-7.35c.57-1.69.23-2.65-.94-2.94l-8.61-1.46-12.69-3.64-1.52-.29c-1.48-.6-2.9-.4-4.29.21l-2.93,2.21-4.83,4.4-8.38,8.81-15.79,16.74c-.68,1.34-1.23,2.66.33,3.76l1.83,1.33,7.98,3.95,3.76,2.29c.89.35,1.12.71,2.3.37Z"/>
  </g>
  <g id="Layer_47">
    <path class="cls-1" d="M365.15,25c-2.67,5.93-5.41,13.32-8.19,21.46.61,2.68,1.86,4.56,4.1,5.21l15.33,12.89c2.16,1.77,2.1,1.46,6.16,2.1,3.14.42,5.98.86,9.37,1.27,3.68.45,7.42.28,11.05-.52,2.04-.45,4.12-.98,5.29-1.52l30.6-11.11c2.71-.61,3.63-1.79,1.78-3.87-1.43-2.36-3.72-4.14-6.86-5.33-5.96-1.63-11.61-3.1-15.81-3.81l-15.43-3.3c-3.8-.29-7.3-1.56-10.6-3.49-3.57-2.01-7.51-4.05-11.68-6.1l-8.89-3.87s-1.64-.86-2.91-1.5-2.32-.41-3.31,1.5Z"/>
  </g>
  <g id="Layer_48">
    <path class="cls-1" d="M296.97,60.49c.18,15.57.15,32.51,0,50.24.18,2.54,2.22,4,5.17,4.45,1.58.64,3.19.97,4.79,1.67,3.07.49,5.97.53,7.89-2.01,2.77-3.99,6.64-8.39,10.9-12.94l3.32-3.63c1.51-2.74.66-4.84-.62-6.75l-14.66-25.45c-1.35-1.4-2.72-2.53-4.13-3.27l-9.43-5.21c-1.95-1.25-3.37-1.02-3.37,1.27l.13,1.62Z"/>
  </g>
  <g id="Layer_49">
    <path class="cls-1" d="M320.45,67.22l13.59,24.06c1.14,2.29,3.04,3.13,5.27,4.06l3.17,1.21c2.01.23,3.9-.54,5.59-2.86l25.4-21.71c1.78-1.59.62-3.17-.95-4.32-2.68-2.99-8.15-6.9-13.65-10.82l-4-3.79c-1.44-1.48-3.78-1.06-6.41,0l-26.67,8.76c-2.44,1.04-3.05,2.79-1.33,5.4Z"/>
  </g>
  <g id="Layer_50">
    <path class="cls-1" d="M369.09,103.41l-16.43-3.21c-2.61.32-3.63-2.95-.52-4.73l16.13-13.08,4.32-4.13c4.19-3.92,7.24-5.02,11.11-4.19,3.51-.41,6.94-.17,10.29.7l4.32.57c1.61.12,2.86.91,3.75,2.41l12.51,14.98c1.26,1.36.76,2.64-1.14,3.85l-20.44,18.44-2.6,2.09c-1.15.81-3.24.56-4.7-.63-2.91-3-7.2-5.21-11.58-9.01-2.79-2.42-3.71-3.6-5-4.07Z"/>
  </g>
  <g id="Layer_51">
    <path class="cls-1" d="M405.85,71.67c.14-1.02,21.78-8.56,33.21-12.13,1.82-1.44,5.33-2,8.57-.38,3.84,1.58,9.66,5.29,15.49,9.01,2.94,1.24,4.68,2.75,3.16,5.72.03.59-.68,2.21-1.19,3.75.16,3.21-.47,6.32-2.48,9.21-4.04,4.19-8.69,8.27-13.78,12.25-2.1,2.94-3.59,3.41-6.92,2.35l-18.54-6.92c-2.15-.33-3.68-2.15-5.08-4.32-4.53-5.47-8.75-10.93-12.44-16.38-1.27-.88-.29-2.08,0-2.16Z"/>
  </g>
  <g id="Layer_52">
    <path class="cls-1" d="M313.9,141.98c8.51,2.14,17.6,4.38,20,5.05,1.88.57,2.39,1.42,1.29,3.67-5.38,6.96-11.9,14.81-16.24,21.9-1.36,1.9-2.57,2.71-5.05,2.14-4.34.08-9.63-.12-15.38-.48-1.02-.12-1.8-1.04-2.1-3.48.67-7.86.55-21.9.41-36.71-.41-1.29.4-9.76.35-11.95-.49-1.89,0-3.13,1.76-2.29,2.75.58,5.25,1.1,7.38,2.48,1.26.74,1.89,2.33,1.67,5.05-.39,3.29-.81,6.12-1.29,8.19-.44,2.66.11,5.49,1.9,5.95.56.49,2.91.28,5.29.48Z"/>
  </g>
  <g id="Layer_53">
    <path class="cls-1" d="M314.04,136.74c6.05.93,14.74,4.03,23.49,6.42.59.16,1.2.24,1.82.24h0c.49,0,.98-.05,1.47-.16l16.66-3.65c1.52-.71,2.04-1.6,2.24-3.29,1.43-3.21,1.39-6.87,2.15-9.87.1-.41.18-.83.22-1.25.38-4.95,1.38-8.6,1.96-10.94.1-.4.22-.8.4-1.17.53-1.09,1.2-3.58.89-2.91,1.05-2.14-.78-2.17-2.62-2.67-6.71-1.96-13.24-2.79-19.42-4.13-.33-.07-.65-.17-.96-.28-2.34-.87-4.35-1.71-5.53-2.44-1.56-.68-3.01-.68-4.24.71l-9.48,10.29c-2.45,2.45-4.67,5.24-6.71,8.29-1.16,1.76-2.04,3.96-2.62,6.63-.1.46-.14.94-.14,1.41v1.83c0,.76-.14,1.52-.38,2.25-.85,2.49-.8,4.23.81,4.69Z"/>
  </g>
  <g id="Layer_54">
    <path class="cls-1" d="M296.42,180.65v48l-.38,17.62c-.55,4.11,1.5,3.74,3.14,2.48l9.27-14.72c4.13-4.96,5.08-10.93,3.62-17.21-.35-1.8.34-5.41,3.56-9.14l7.68-11.17c.67-1.05.09-4.72-1.52-6.41l-4.7-7.68c-.49-1.93-1.61-2.76-3.05-3.05l-11.11-1.02c-4.33-.15-6.16-.7-6.51,2.32Z"/>
  </g>
  <g id="Layer_55">
    <path class="cls-1" d="M321.6,176.24l4.68-7.06c.05-.08.11-.15.16-.23l8.55-11.13c2.04-2.83,4.07-5.5,6.09-7.66.17-.19.36-.36.57-.51,2.51-1.88,5.12-3.05,7.87-3.29.34-.03.69-.1,1.02-.21,4.09-1.43,7.02-1.76,7.88-.14l.74,1.86c.1.24.17.49.22.75l2.28,11.96c.46,1.83-.11,3.76-1.4,5.75l-13.02,17.97-9.52,12.7-1.65,2.41c-1.05,1.23-2.93,2.85-3.94.57l-4.65-9.43c-.07-.15-.16-.29-.25-.43l-3.4-5.17c-.2-.31-.45-.58-.73-.83-2.38-2.14-3.47-4.61-1.52-7.89Z"/>
  </g>
  <g id="Layer_56">
    <path class="cls-1" d="M343.5,195.54l19.11-25.52c1.8-2.52,4.24-3.85,7.49-3.62l42.98-1.59c3.62.32,3.75,1.21,2.35,4.89l-11.17,28.38c-1.76,3.01-4.31,5.39-7.24,7.49l-13.9,8.83c-2.1,2.16-4.04,2.41-6.54.83l-28.7-14.09c-3.05-1.34-6.68-1.78-4.38-5.59Z"/>
  </g>
  <g id="Layer_57">
    <path class="cls-1" d="M382.29,155.73l35.37-18.35,7.11-3.37c3.9-2.29,4.81-1.48,6.79-.32,9.99,6.74,19.45,12.85,27.81,17.59,2.35,1.65,3.68,3.9,3.43,6.92-.78,3.89-5.85,14.91-10.22,24.76l-1.08,2.67c-1.02,1.65-1.9,1.97-4.84-1.21l-19.29-20.12-4.06-4.19c-1.98-1.71-2.47-1.09-6.1.13-11.99.98-25.44.89-32.38,1.02-4.07.19-7.85.43-10.92.76-1.78-.89-1.69-1.52,1.08-3.05,1.77-.11,4.83-1.96,7.3-3.24Z"/>
  </g>
  <g id="Layer_58">
    <path class="cls-1" d="M448.26,139.22c3.61,2.35,8.8,6.17,13.97,9.97,3.24.96,3.62,1.4,6.41-1.08.87-1.15,4.83-4.54,7.62-7.81l2.35-4.06c1.37-1.61,2.9-2.38,4.51-2.67h2.1c3.19-.85,6.73-1.02,8-2.48,2.83-.19,3.18-1.21,2.6-4.76-2.97-5.45-6.14-15.73-9.33-26.48-.82-1.39-1.94-2.28-3.37-2.67-5.27-1.53-10.22-3.27-14.67-5.33-2.39-.99-4.43-.55-6.1,1.46-4.09,4.07-8.14,7.63-12.13,10.67-1.2.41-1.87,2.33-2.48,4.44l-9.59,20.51c-.49,1.21-1.33,3.62,1.71,5.4,3.3,1.46,6.14,3.08,8.38,4.89Z"/>
  </g>
  <g id="Layer_59">
    <path class="cls-1" d="M368.9,113.44l-6.03,28.95,2.48,14.41c.73,2.34,2.31,2.13,4.13,1.21l24.13-12.51,24.89-12.51,8.38-5.21c.68-.76,1.87-.59,3.56.51,2,1.8,3.54.2,4.89-2.67l8-16.95c.7-1.79.63-2.35-2.16-3.56-6.03-1.27-12.37-4.12-18.92-6.92-3.24-.63-3.05-1.14-6.73,1.52l-25.46,23.24c-.25.95-1.89,2.61-3.11.32l-13.59-10.22c-2.19-2.38-3.69-2.33-4.44.38Z"/>
  </g>
  <g id="Layer_60">
    <path class="cls-1" d="M469.41,153.7l-14.03,31.94c-1.6,3.49-1.73,4.4,1.21,4.89,2.41-.29,15.13-.2,22.86.63,4.63.58,5.98.87,7.3-1.27,3.67-9.37,7.41-18.34,11.3-26.48.51-2.86.51-5.34,0-7.43l-1.08-16.19-.06-2.6c-.44-2.11-.85-2.54-3.3-1.65l-7.56,2.6c-1.49.87-3.15,2.21-4.25,2.35-3.56,2.67-5.23,4.02-6.1,6.48l-4.38,3.87-1.9,2.86Z"/>
  </g>
  <g id="Layer_61">
    <path class="cls-1" d="M409.15,202.4c11.02,6.15,21.31,12.26,30.48,18.29,1.78,1.44,3.78.91,5.9-.7l31.43-21.59c1.79-1.71,1.28-2.86-1.08-3.37l-20.25-.76c-4.44.76-7.43-2.16-7.43-2.16,0,0,.32-.83-1.14-1.58-8.45-8.65-17.94-18.32-21.4-22.03l-2.1-2.35c-1.47-1.17-2.32-.5-2.92.95l-5.46,14.54c-1.75,5.12-3.73,10.17-6.03,15.11-1.2,3.05-1.33,3.94,0,5.65Z"/>
  </g>
  <g id="Layer_62">
    <path class="cls-1" d="M454.93,217.95l28.44-19.37c2.54-1.84,3.56-1.08,4.57,1.21l16.06,40.51c.83,2.73-.07,3.68-2.16,4.13l-11.81,4c-1.99.76-4.02.63-6.1-.57l-15.94-6.41c-1.81-.85-3.98-1.21-6.41-1.21l-5.4,1.27c-1.95.32-2.6-.32-3.49-2.03l-6.22-12.25c-.83-1.84-.34-3.37,3.24-5.7l5.21-3.57Z"/>
  </g>
  <g id="Layer_63">
    <path class="cls-1" d="M503.95,167.16l11.75,23.62,2.98,8c4.27,5.8,8.18,12.03,11.75,18.67l2.86,4.08c1.25,1.65,1.35,2.82.7,4.18l-4.32,17.33-.19,3.43c-.27,1.8-1.37,2.7-3.87,2.03l-15.87-7.37c-1.22-1.19-2.15-2.83-2.73-5.02l-6.22-15.11-9.08-21.97c-1.22-3.96-.66-8.26.89-12.76l7.17-16.25c.96-3.47,1.87-5.35,4.19-2.86Z"/>
  </g>
  <g id="Layer_64">
    <path class="cls-1" d="M328.14,202.4l17.52,30.6c.47,1.31,1.09,2.35,1.9,3.05,1.31,1.97,1.23,3.79-1.14,5.33l-15.24,11.3c-1.42.86-3.08,1.52-5.21,1.78-1.09-.2-2.44.38-4.51.73h-19.3c-2.22.02-2.83-1.03-1.08-3.65l6.92-10.51,3.4-5.17,4.03-4.22c2.93-2.84,4.03-6.13,3.71-10.22-1.41-3.97-1.35-7.53,1.44-10.32l2.95-4.76,1.84-4.16c.86-.9,1.78-.97,2.76.22Z"/>
  </g>
  <g id="Layer_65">
    <path class="cls-1" d="M335.76,207.36c3.16,4.25,9.93,16.9,17.14,30.08,1.86,3.08,1.11,3.01-.76,4.95-1.04-.1-2.34.79-3.72,2.03l-8.09,5.97c-8.76,4.79-8.21,4.77-4.57,8.02,5.95,4,15.08,12.93,24.25,21.95,5.62,5.46,6.62,4.12,8.76.63l16.76-24.13c1.03-1.54.35-4.98-.63-8.76l-4.19-24.25c-.61-2.64-2.32-3.84-6.73-5.59l-32-15.24c-4.13-1.9-5.93-.03-6.22,4.33Z"/>
  </g>
  <g id="Layer_66">
    <path class="cls-1" d="M384.9,222.55l4.38,27.62c.07,3.47,1.69,3.72,5.62,2.67l5.71-1.33c2.28-2,3.92-1.68,5.05.48,1.67,4.22,10.1,13.42,16.38,22.38l2.48,4.34c1.52,2.68,3.24,1.39,6.38-3.2,6.08-8.73,12.42-18.01,16.19-21.71l1.71-3.14c1.78-4.46,1.27-7.19,0-9.33-2.41-4.82-5.03-9.85-5.68-12.97-1.48-2.03-3.02-3.63-4.7-4.17l-27.24-16-2.38-1.24c-2.8-1.83-5.3-1.32-7.62.48l-6,4.29-8.29,5.52c-2,2.48-2.24,3.62-2,5.33Z"/>
  </g>
  <g id="Layer_67">
    <path class="cls-1" d="M451.47,253.89c-5.33,6.41-11.67,15.16-18.1,24.1-3.71,4.29-3.9,6.06-1.62,6.86l11.9,4.48c2.56.85,5.4.67,8.38,0l28.67-8.29c1.79.05,2.49-2.06,2.86-4.86l3.71-20.95c-.51-1.99-1.59-3.48-3.71-4.1l-19.33-5.9c-6.19.86-8,.38-10.19,3.49l-2.57,5.18Z"/>
  </g>
  <g id="Layer_68">
    <path class="cls-1" d="M491.03,258.27l-3.27,17.14c-.17,4.88,1.01,8.53,2.76,11.66l7.24,7.86c3.2,2.79,11.65,6.41,19.33,9.9,2.99,1.55,4.38.43,4.86-2.18,1.77-6.47,4.33-13.6,6.86-15.58l.48-5.52c.8-8.03.98-15.63,0-22.43.13-3.06-1.67-5.3-4.86-6.95l-11.72-4.67c-1.21-.65-3.71-.61-7.33,0-2.77,1.62-6.56,2.68-10.76,3.52-3.58.76-3.58,1.9-3.58,7.24Z"/>
  </g>
  <g id="Layer_69">
    <path class="cls-1" d="M404.71,263.13l-.76,20-2.19,24.29-1.62,15.24v1.71l3.9,13.14c1.25,1,2.25,1.65,6.38,0,10.14-3.87,19.79-7.42,25.62-8.48,3.09-.28,4.68-2.44,5.14-6l5.43-25.14c.6-2.86.51-4-4.19-5.9l-10.38-3.14-4.1-.76-3.14-2.48c-2.53-4.54-7.65-11.58-13.24-19.05l-3.33-4.95c-.76-1.31-4.16-2.7-3.52,1.52Z"/>
  </g>
  <g id="Layer_70">
    <path class="cls-1" d="M331.12,259.41s7.17,5.9,7.37,6.03,5.71,4.7,5.71,4.7l10.73,10.1c.56,1.2,4.8,4.28,7.87,7.11,2.03,1.65,2.03,3.56,0,5.71-2.6,2.63-5.72,5.81-9.14,9.33-1.67,1.28-3.51,1.94-5.65,1.46-4.99-1.27-14.32-3.45-23.77-5.65-2.26-.49-4.25-1.57-5.95-3.87l-14.29-14.6c-2.32-1.81-4.6-3.62-5.65-5.59-1.03-1.64-1.6-3.82-1.65-6.6l.38-6.86c.67-.79,1.92-1.2,3.68-1.27,7.29.33,14.92-.07,22.81-1,3.05-.32,5.75-.22,7.54,1Z"/>
  </g>
  <g id="Layer_71">
    <path class="cls-1" d="M402.36,260.18l-1.02,6.85-.89,16.44-1.59,13.46-1.27,13.4c-.46,3.31-1.02,6.59-1.65,9.84-.93,1-2.22,1.75-4.25,1.97l-12.06,2.1c-2.1.8-4.35-.14-6.73-2.41l-15.43-12.63c-1.85-.88-2.6-2.67-.51-4.7l11.17-12.28,1.27-5.5c-.25-1.78,2-5.31,4.06-7.37l14.73-20.19c2.59-1.85,5.44-2.99,8.51-3.49,5.27-1.84,5.77,0,5.65,4.52Z"/>
  </g>
  <g id="Layer_72">
    <path class="cls-1" d="M449.47,298.59l-5.65,26.6c-.51,2.83-.03,4.87,1.52,6.03l18.79,20.89c2.37,2.52,5.18,3.04,8.25,2.29l5.14-2.73c1.43-1.7,1.5-3.91,1.14-6.29l-4.32-25.78,3.24-3.24,15.11-17.4c.45-1.68,1.27-1.97-1.4-4.83l-6.79-9.14c-1.39-.55-3.4-.47-5.78,0l-19.97,5.78-4.29,1.21c-2.53,1.44-4.28,3.56-5.02,6.6Z"/>
  </g>
  <g id="Layer_73">
    <path class="cls-1" d="M494.99,301l-15.05,17.9c-1.39,1.53-1.51,3.24-1.14,5.02,1.23,6.91,1.98,13.72,2.48,19.17.79,6.14,1.26,9.7,1.71,9.97,1.48,3.7,5.89,7.9,9.46,12.25,2.41,2.92,3.87,2.84,5.33.63l14.67-17.78c1.76-2.09,1.82-5.34.51-9.52-1.41-3.7-1.06-7.76.89-12.13,1.59-2.43,2.98-5.24,4.25-8.25,1.92-4.18,2.23-7.18.7-8.83l-5.84-2.48-12.25-6.29c-2.42-.97-4.41-1.04-5.71.32Z"/>
  </g>
  <g id="Layer_74">
    <path class="cls-1" d="M438.99,331.92c-7.03,2.47-14.74,5.22-17.65,6.03l-4.95,1.02-7.49,2.79c-3.03.94-3.01,2.74-1.97,4.83,2.23,5.16,4.15,12.26,5.97,19.94,1.37,3.8,5.4,2.79,9.27,4.25l6.48,1.9c1.07.34,2.58-.08,4.38-1.02,3.47-1.31,12.39-5.88,22.54-9.9l6.98-2.67c2.48-1.46,1.71-2.35-.76-5.14-6.72-7.25-13.16-14.29-17.84-19.94-1.52-1.84-2.99-2.78-4.95-2.1Z"/>
  </g>
  <g id="Layer_75">
    <path class="cls-1" d="M375.5,333.13l-8,23.11c-1.44,2.87-2.1,4.7-1.33,6.22l5.59,24.63,1.21,5.08c.39,2.2,1.46,2.6,3.05,1.59l19.24-13.46,12.38-8.38c1.3-1.01,1.69-2.7,1.27-5.02l-2.6-8.51c-1.85-5.92-4.05-12.28-5.02-15.94-.8-1.47-1.7-3.67-2.67-6.29l-1.84-7.68c-.06-1.97-.75-3.15-3.87-2.73l-11.75,2.29c-2.73.23-4.63,1.9-5.65,5.08Z"/>
  </g>
  <g id="Layer_76">
    <path class="cls-1" d="M297.22,282.46c-.08,13.06-.03,29.33-.51,32.25.44,4.63,1.02,6.82,2.35,9.21l11.49,28,5.4,12.89c1.07,1.92,2.61,2.99,4.57,3.3,3.1.2,7.52,1.75,12.38,3.75,1.2,1.32,3.3.73,5.46,0,5.33-3.13,10.65-5.66,15.94-7.43,2.6-1.21,2.58-2.88.7-4.45l-22.86-15.62-5.97-4.06c-1.91-1.77-2.58-4.22-3.11-7.68-.96-7.05-3.38-19.33-5.97-32.19-.66-2.44-2.37-4.44-4.44-6.29l-11.62-11.68c-3.11-3.43-3.72-1.88-3.81,0Z"/>
  </g>
  <g id="Layer_77">
    <path class="cls-1" d="M322.23,304.49c1.91,8.12,3.14,15.66,3.87,21.18.42,2.99.75,4.53,2.41,8.66,1.91,3.13,4.14,5.59,6.73,7.3,5.54,2.79,11.87,7.43,19.11,13.08,1.25.7,3.18,2.2,5.21,3.81,1.97.83,2.5.53,3.43-1.59.82-3.42,1.66-6.8,2.85-9.4.35-2.54,2.19-7.47,4.07-12.46l2.54-6.65c.23-1.65-.22-2.77-2.1-4.32-.53-.41-10.22-7.9-14.02-11.17-1.79-2.03-3.97-3.38-6.55-4.32l-17.21-4.13-7.75-1.83c-2.16-.96-3-.43-2.6,1.83Z"/>
  </g>
  <g id="Layer_78">
    <path class="cls-1" d="M294.99,335.07c.58,12.37.94,25.19.54,38.24l1.17,23.37-.32,12.19c-.32,4.39-.1,7.55,1.84,6.79,5.38-1.4,12.46-2.9,17.24-3.75,3.46-.66,5.68-1.85,6.25-3.75,1.28-4.77,4.16-12.66,7.24-20.94l2.98-7.76c.32-2.13-.03-2.79-2.03-3.68l-12.44-3.81c-3.07-1.48-5.05-4.06-6.29-7.49-2.43-7.21-6.38-16.61-10.73-26.6l-2.29-6.16c-.79-3.46-3.11-3.18-3.17-.38.11,1.44.23,2.89,0,3.73Z"/>
  </g>
  <g id="Layer_79">
    <path class="cls-1" d="M337.85,375.98l19.71-9.43c2.95-1.4,4.62-1.55,5.14,1.05l6.86,27.62c.44,2.82,1.23,6.08,2.1,9.43.85,3.08.21,5.06-.67,6.57l-12.48,17.62c-.37,1-2.12,1.74-4.38,2.38l-11.52,3.24c-1.39.23-3.05-.83-4.76-3.9-4.25-6.09-8.41-11.77-12.48-16.95-1.18-2.45-.35-5.16.76-7.9l6.95-19.62,2.38-6.57c.33-1.21,1.12-2.38,2.38-3.52Z"/>
  </g>
  <g id="Layer_80">
    <path class="cls-1" d="M439.47,373.32l18.19-7.76,16.1-7.39c4.6-2.98,5.94-2.95,8.19-.67l7.81,10.06c1.81,2.23,1.71,3.47.38,5.37l-4.38,6.86-1.71,4.38c-.31,2.61-.38,4.19-3.81,4.19-5.83-1.04-11.22-2.04-15.62-2.95-3.84-.93-7.1-1.07-8.76-.1l-7.71,2.7c-3.3,2.35-4.51,2.73-5.9.35-.54-.41-4.14-6.78-6.67-11.05-.38-1.11-1.29-2.41,3.9-4Z"/>
  </g>
  <g id="Layer_81">
    <path class="cls-1" d="M458.29,389.06l21.14,3.49c2.77.22,3,1.9,2.6,3.94l-1.9,9.9c-.51,2.45-1.97,4.67-3.81,6.79l-4.76,5.78-4.63,18.54-1.33,5.84c-.24,3.23-2.01,3.46-4.76,1.78l-14.92-8.57-8.38-5.52-6.35-8-2.73-4.83c-.95-2.1.29-4.16,1.46-6.29l10.6-13.33,2.54-2.48,2.79-2.29,3.62-1.97,3.81-1.59,5.02-1.21Z"/>
  </g>
  <g id="Layer_82">
    <path class="cls-1" d="M377.6,407.79l14.98,1.9,14.79,2.16,14.1,2.22c2.15-.34,3.6-1.5,4.63-3.14l9.65-11.9,3.11-4.06c.75-1.95.45-3.91-1.02-5.9l-5.52-8.19c-1.14-2.63-1.87-3.21-3.37-3.75l-12.44-3.43c-2.25-.61-4.23-.3-5.9,1.08l-8.83,5.78c-1.69,1.3-3.28,2.94-4.83,4.95-2.19.95-3.79,1.58-4.95,1.97-3.44,2.23-6.75,4.49-9.84,6.81l-5.65,4.23c-2.98,4.03-2.26,7.52,1.08,9.27Z"/>
  </g>
  <g id="Layer_83">
    <path class="cls-1" d="M297.02,459c.31,15.73.24,30.11-.74,41.3.33,5.21.29,9.76,0,13.84-.03,3.08,1.77,3.8,5.18,2.41,3.72-1.47,9.88-2.64,16.07-3.81,3.7-1.08,3.76-1.4,3.62-6.48-1.25-9.4-1.99-18.34-1.9-26.54-1.18-5.3-1.56-4.2-5.73-9.27-3.78-3.33-8.16-7.92-12.81-13.08-2.4-2.59-4.34-2.24-3.68,1.62Z"/>
  </g>
  <g id="Layer_84">
    <path class="cls-1" d="M361.47,433.44l6.22,5.4,12.25,15.56c1.57,2.4,3.2,2.59,4.89.83l12.95-14.48,2.73-2.92,5.33-2.67c9.58-1.02,21.63-2.07,23.75-2.98,3.46,1.27,4.39-1.05,2.6-2.98l-8.19-9.97c-1.48-.93-3.91-1.64-7.62-2.03l-26.48-3.37-11.94-1.52c-2.18-.28-3.92.77-5.33,2.73l-7.17,10.6-2.98,3.56c-.97,1.04-1.71,2.6-1.02,4.25Z"/>
  </g>
  <g id="Layer_85">
    <path class="cls-1" d="M406.49,439.28l20-2.03,6.1-.83c1.57-.31,3.56-.14,6.35.95l19.49,10.54c3.3,1.65,3.24,2.67.63,4.89-9.03,6.47-17.77,13.42-26.29,20.76-2.14,1.76-4.5,3.04-8.57.7-10.95-4.54-21.67-8.98-27.37-11.05l-8.13-3.3c-2.03-1.33-1.33-2.1,1.08-4.57,3.58-3.42,6.85-6.92,9.59-10.54l3.81-3.56c.98-.91,2.09-1.55,3.3-1.97Z"/>
  </g>
  <g id="Layer_86">
    <path class="cls-1" d="M300.2,418.71l15.62-3.68c2.18-.46,4.22.23,6.16,1.84l11.37,13.71,4,4.95c1.37,2.25,1.69,4.68,1.27,7.24-.59,3.49-2.38,7.76-2.48,10.48-.44,2.23-1.05,4.21-2.16,5.4l-11.3,10.86c-1.83,1.97-3.65,2.11-5.46.44l-11.75-13.27-3.87-3.87c-2.71-2.7-4.36-6.01-4.51-10.32v-8.67c0-2.24-.37-5.86-.76-9.59-.26-2.76.75-4.77,3.87-5.52Z"/>
  </g>
  <g id="Layer_87">
    <path class="cls-1" d="M342.87,440.36l-2.54,13.4c-1.04,2.08-1.78,4.04-1.21,5.46,1.23,2.31,6.83,7.93,11.56,12.89,3.88,3.72,7.8,8.1,11.75,13.02,2.1,2.92,4.25,3.59,6.41,3.05,9.81-1.49,26.26-4.51,43.37-7.68l8.13-1.4c1.46-.76.93-1.52,0-2.54-4.14-1.11-8.5-2.73-12.95-4.57l-18.86-7.71c-1.71-.56-3.47-.81-5.27-.79-1.23,1-2.93-.54-4.89-3.37l-7.49-10.54c-2.98-2.3-6.98-7.27-10.98-12.25-1.5-2.03-3-3.19-4.51-2.41l-9.9,2.79c-1.42.46-2.37,1.28-2.6,2.67Z"/>
  </g>
  <g id="Layer_88">
    <path class="cls-1" d="M369.37,531.27l7.33-11.1c2.27-3.14,3.59-5.18,5.57-8.52l4.86-2.48,3.14-1.29,4.38-2.33,17.14-7.62c2.49-.89,4.04-2.23,4.95-3.86l6.33-8.81.95-1.57c1.19-1.38.54-2.35-1.52-2.1-1.59.52-3.54.98-5.95,1.33-3.01.65-6.34,1.33-10.1,2.05l-30.48,5.43-8.48,1.57c-.87.23-1.67,1.06-2.43,2.33l-7.24,10.33-6.14,9.05c-.65.85-1.14,1.58-1.29,2.1-.38,1.3-.08,2.33.62,3.05l10.69,10.29,2.69,2.52c1.71,1.21,3.4,1.97,4.95-.38Z"/>
  </g>
  <g id="Layer_89">
    <path class="cls-1" d="M322.56,478.94c1.12,8.9,1.99,17.31,2.57,25.14-.29,4.76-.24,6.48,1.62,6.95,3.69.25,8.44,1.53,13.67,3.05,3.32,1.38,5.54,1.16,6.81-.43,2.19-4.05,5.94-9.24,10-14.67,1.55-2.05,2.84-4.02,3.95-5.95.86-1.95.68-3.43-.38-4.69-1.59-1.04-4.18-3.76-6.95-6.79l-7.86-8.86-6.43-7.24-1.67-1.81c-1.49-1.58-2.96-1.34-4.43,0l-6.1,5.33-3.33,3.71c-1.24,1.4-1.75,3.5-1.48,6.24Z"/>
  </g>
  <g id="Layer_90">
    <path class="cls-1" d="M296.29,524.3v12.32c.31,2.35,1.35,4.27,3.09,5.78l11.37,9.71c1.62,1.32,3.24,1.84,5.27,1.78l10.67.25,5.65-.63h5.78c2.75.15,5.68-.73,8.76-2.35l8.76-5.52,7.56-5.71c1.37-1.13,1.47-2.71-.32-4.95l-12.6-11.68c-2.92-2.43-5.35-4.17-9.1-4.75-4.55-.33-8.62-1.48-11.75-2.17l-3.87-.83c-2.22-.19-4.02-.55-6.4-.28-2.02.08-3.89.56-6.05,1.13-1.88.34-5.29,1.35-8.69,2.48-.33-.1-3.5,1.12-5.47,1.69-1.53.78-2.53,1.94-2.64,3.75Z"/>
  </g>
</svg>